<svg width="240" height="240" viewBox="0 0 240 240" fill="none" xmlns="http://www.w3.org/2000/svg">
<g opacity="0.5" clip-path="url(#clip0_1206_3640)">
<path d="M132.116 132.413C131.048 132.017 129.916 131.817 128.775 131.823C127.772 131.823 126.573 132.174 126.573 133.318C126.573 135.515 133.059 134.125 133.059 139.101C133.059 142.315 130.088 143.585 127.026 143.585C125.596 143.565 124.175 143.367 122.795 142.995L123.014 140.043C124.154 140.622 125.413 140.934 126.694 140.955C127.637 140.955 129.145 140.611 129.145 139.273C129.145 136.561 122.659 138.414 122.659 133.43C122.659 130.441 125.352 129.148 128.278 129.148C129.648 129.161 131.012 129.332 132.343 129.656L132.116 132.413Z" fill="#C0C0C0"/>
<path d="M153.226 129.536H149.493V143.331H153.226V129.536Z" fill="#C0C0C0"/>
<path d="M176.553 132.413C175.484 132.017 174.352 131.817 173.212 131.823C172.209 131.823 171.01 132.174 171.01 133.318C171.01 135.515 177.495 134.125 177.495 139.101C177.495 142.315 174.516 143.585 171.462 143.585C170.032 143.565 168.611 143.367 167.231 142.995L167.45 140.043C168.589 140.625 169.849 140.937 171.13 140.955C172.073 140.955 173.581 140.611 173.581 139.273C173.581 136.561 167.088 138.414 167.088 133.43C167.088 130.441 169.795 129.148 172.721 129.148C174.089 129.162 175.451 129.332 176.779 129.656L176.553 132.413Z" fill="#C0C0C0"/>
<path d="M142.207 135.724L147.486 129.536H143.09L138.633 135.059H138.58V122.116L134.847 123.244V143.331H138.58V136.635H138.633L143.429 143.331H148.158L142.207 135.724Z" fill="#C0C0C0"/>
<path d="M155.631 123.244V143.331H159.356V122.116L155.631 123.244Z" fill="#C0C0C0"/>
<path d="M161.507 123.244V143.331H165.24V122.116L161.507 123.244Z" fill="#C0C0C0"/>
<path d="M153.514 124.387C153.514 123.979 153.391 123.581 153.163 123.241C152.934 122.902 152.609 122.638 152.229 122.482C151.848 122.326 151.43 122.285 151.026 122.364C150.622 122.444 150.251 122.64 149.96 122.929C149.669 123.217 149.471 123.585 149.391 123.985C149.31 124.385 149.351 124.8 149.509 125.177C149.667 125.553 149.933 125.876 150.276 126.102C150.618 126.329 151.02 126.45 151.432 126.45C151.983 126.448 152.512 126.23 152.902 125.844C153.292 125.457 153.512 124.934 153.514 124.387" fill="#C0C0C0"/>
<path d="M88.7315 129.499C83.8747 129.499 82.1553 133.325 82.1553 136.598C82.1553 139.871 83.8747 143.704 88.7315 143.704C93.5883 143.704 95.3078 139.878 95.3078 136.598C95.3078 133.317 93.5808 129.499 88.7315 129.499ZM88.7315 142.352C85.8883 142.352 83.9728 140.043 83.9728 136.598C83.9728 133.153 85.8883 130.851 88.7315 130.851C91.5747 130.851 93.4827 133.16 93.4827 136.598C93.4827 140.035 91.5747 142.352 88.7315 142.352Z" fill="#C0C0C0"/>
<path d="M98.4601 131.995V129.753H96.9141V143.316H98.5732V136.531C98.5732 134.027 99.3274 131.046 102.691 131.046H103.211V130.993L103.294 129.409H103.106C100.806 129.409 99.2444 130.268 98.4601 131.957" fill="#C0C0C0"/>
<path d="M120.443 122.871L118.852 123.356V131.741C118.374 130.992 117.702 130.384 116.906 129.98C116.11 129.577 115.22 129.393 114.327 129.447C109.538 129.506 108.535 133.34 108.535 136.546C108.535 140.932 110.752 143.652 114.327 143.652C115.237 143.722 116.148 143.53 116.951 143.099C117.753 142.668 118.414 142.017 118.852 141.224V143.331H120.511V122.856L120.443 122.871ZM114.599 142.3C110.767 142.3 110.345 138.279 110.345 136.546C110.345 134.812 110.767 130.799 114.599 130.799C117.54 130.799 118.852 133.684 118.852 136.546C118.852 139.408 117.54 142.3 114.599 142.3Z" fill="#C0C0C0"/>
<path d="M106.621 122.878L105.029 123.356V143.331H106.688V122.856L106.621 122.878Z" fill="#C0C0C0"/>
<path d="M62.7732 129.768H61.001V129.835C61.0915 130.089 65.4656 143.174 65.5259 143.286V143.323H67.5772L71.4461 131.501H71.5667C71.5667 131.576 75.4431 143.316 75.4431 143.316H77.4869L82.1325 129.753H80.4809L76.5517 141.56H76.4084C76.4084 141.492 72.6376 129.753 72.6376 129.753H70.624L66.6722 141.56H66.544L62.7732 129.753V129.768Z" fill="#C0C0C0"/>
<path d="M146.023 98.7782C146.023 98.7782 152.69 97.605 154.87 92.3591C154.87 92.3591 193.664 100.235 170.76 120.756C170.76 120.756 179.259 112.827 174.531 106.49C174.531 106.49 177.178 114.359 166.8 119.665C166.8 119.665 189.305 103.83 146.039 98.8006" fill="#C0C0C0"/>
<path d="M167.284 95.9012C169.303 96.8742 171.218 98.0459 173 99.3984C173.125 95.351 172.34 91.3267 170.704 87.6163C169.067 83.906 166.618 80.6024 163.536 77.9442C163.328 78.4797 163.005 78.9642 162.589 79.3641C162.174 79.764 161.676 80.0699 161.13 80.2607C160.275 80.6723 159.578 81.3492 159.146 82.1887C163.413 85.6594 166.297 90.5192 167.284 95.9012" fill="#C0C0C0"/>
<path d="M153.835 93.3312C154.161 92.873 154.415 92.3693 154.59 91.8366C156.932 92.2478 159.243 92.8196 161.505 93.5479C159.049 86.4626 154.875 80.0833 149.348 74.9706C149.13 75.5984 146.814 76.7492 145.238 77.4292C143.662 78.1092 144.077 81.0086 144.077 81.0086C148.14 84.4057 151.46 88.5886 153.835 93.3013" fill="#C0C0C0"/>
<path d="M170.103 106.632C169.568 112.558 166.016 118.85 166.016 118.85C168.25 115.551 170.04 111.976 171.34 108.217C171.008 107.631 170.592 107.097 170.103 106.632" fill="#C0C0C0"/>
<path d="M169.638 106.214C169.009 105.69 168.336 105.223 167.624 104.816C167.253 108.651 166.321 112.412 164.856 115.981C165.751 114.869 166.489 113.642 167.051 112.334C167.096 113.926 165.769 117.087 165.769 117.087C167.72 113.728 169.031 110.042 169.638 106.214" fill="#C0C0C0"/>
<path d="M156.176 118.626C153.506 117.357 150.991 115.79 148.68 113.955C151.795 116.272 156.976 117.759 156.976 117.759C145.505 111.99 143.001 106.759 143.001 106.759C142.188 106.81 141.414 107.125 140.799 107.656C140.273 107.82 139.721 107.894 139.17 107.872C143.536 114.852 156.161 118.626 156.161 118.626" fill="#C0C0C0"/>
<path d="M151.069 99.8243C147.261 99.204 144.463 98.9574 144.463 98.9574C145.812 98.633 147.127 98.1852 148.392 97.6198C145.192 95.3032 141.548 93.6603 137.683 92.7924C137.683 92.7924 136.688 93.1212 136.552 94.7652C136.561 95.1871 136.427 95.5998 136.172 95.9372C135.916 96.2747 135.553 96.5172 135.142 96.6259C155.172 101.924 158.181 118.297 158.181 118.297C157.448 114.058 156.008 109.969 153.92 106.199C156.982 109.315 159.094 117.236 159.094 117.236C158.415 109.053 154.991 103.538 151.069 99.8467" fill="#C0C0C0"/>
<path d="M157.035 101.013C158.765 106.279 159.755 111.755 159.976 117.288C162.111 113.193 161.545 103.755 161.545 103.755C163.536 107.611 163.287 118.11 163.287 118.11C164.231 113.131 164.389 108.036 163.755 103.008C161.562 102.197 159.317 101.53 157.035 101.013" fill="#C0C0C0"/>
<path d="M62.2158 146.447H67.0801C70.685 146.398 72.5327 148.017 72.6232 151.305C72.6385 151.848 72.5383 152.388 72.3291 152.89C72.1199 153.392 71.8064 153.845 71.409 154.219C70.5798 154.992 69.5227 155.482 68.3924 155.616V155.669C68.9846 155.698 69.5444 155.946 69.961 156.364C70.1544 156.558 70.3103 156.786 70.4211 157.036C70.5729 157.323 70.7089 157.617 70.8283 157.918L74.0486 165.159H72.0274L69.2974 158.83C69.0173 157.962 68.4685 157.204 67.7287 156.663C67.4485 156.496 67.1341 156.394 66.8086 156.364C66.4693 156.364 66.0545 156.364 65.6171 156.364H64.1088V165.129H62.2158V146.447ZM64.0786 154.735H66.0545C67.1657 154.768 68.266 154.51 69.2446 153.987C69.7242 153.727 70.1201 153.338 70.3869 152.865C70.6537 152.392 70.7805 151.853 70.7529 151.312C70.7844 150.683 70.6547 150.055 70.3758 149.489C70.1473 149.064 69.7843 148.725 69.3426 148.525C68.8702 148.297 68.3583 148.16 67.8343 148.121C67.2611 148.121 66.6503 148.069 66.0017 148.069H64.0786V154.735Z" fill="#C0C0C0"/>
<path d="M85.5703 161.938C85.5703 162.976 85.5703 164.052 85.6759 165.158H84.0318V162.715H83.9489C83.812 163.038 83.6373 163.344 83.4285 163.627C83.1977 163.971 82.9154 164.278 82.5914 164.538C82.2121 164.827 81.7827 165.045 81.3244 165.181C80.7357 165.395 80.1112 165.497 79.4843 165.48C77.805 165.48 76.5958 164.982 75.8568 163.985C75.0815 162.896 74.7013 161.579 74.7783 160.249V151.491H76.4827V159.793C76.4081 160.865 76.6717 161.933 77.2369 162.849C77.5074 163.249 77.8809 163.569 78.3186 163.776C78.7563 163.984 79.2421 164.072 79.7256 164.03C80.416 164.053 81.0995 163.888 81.7015 163.552C82.2101 163.271 82.6364 162.864 82.9383 162.371C83.2596 161.877 83.4895 161.331 83.617 160.757C83.7435 160.195 83.8067 159.621 83.8056 159.046V151.491H85.51L85.5703 161.938Z" fill="#C0C0C0"/>
<path d="M91.0385 164.03C91.8134 164.053 92.5735 163.816 93.1954 163.358C93.479 163.159 93.7091 162.894 93.8656 162.586C94.022 162.279 94.1001 161.938 94.0929 161.594C94.0948 161.22 94.0044 160.85 93.8296 160.518C93.6548 160.186 93.4009 159.901 93.0898 159.689C92.3697 159.206 91.5983 158.802 90.7897 158.485C90.3749 158.284 89.9827 158.082 89.5981 157.865C89.2184 157.646 88.8577 157.396 88.5196 157.118C88.2125 156.835 87.9573 156.501 87.7655 156.132C87.5556 155.744 87.4517 155.308 87.4638 154.869C87.4222 154.306 87.5306 153.743 87.7781 153.236C88.0257 152.728 88.4037 152.294 88.8741 151.977C89.8001 151.411 90.8712 151.123 91.9586 151.147C92.4631 151.157 92.9666 151.194 93.4669 151.259C94.1047 151.372 94.729 151.549 95.3297 151.79L95.1713 153.232C94.2149 152.834 93.1918 152.616 92.1547 152.589C91.42 152.555 90.6898 152.721 90.043 153.068C89.7738 153.228 89.5566 153.461 89.4171 153.74C89.2413 154.085 89.1581 154.468 89.1758 154.854C89.1781 155.146 89.282 155.428 89.4699 155.653C89.6856 155.905 89.9401 156.122 90.224 156.296C90.5483 156.468 90.9179 156.655 91.3327 156.849C91.7474 157.043 92.1471 157.23 92.5468 157.447C93.4167 157.798 94.2142 158.305 94.8998 158.941C95.4388 159.529 95.7845 160.266 95.8909 161.054C95.9973 161.841 95.8594 162.642 95.4956 163.35C95.2038 163.834 94.8071 164.247 94.3342 164.561C93.362 165.141 92.2489 165.448 91.1139 165.45C89.7971 165.452 88.4894 165.234 87.2451 164.807L87.411 163.141C88.5216 163.713 89.7565 164.008 91.0084 164" fill="#C0C0C0"/>
<path d="M100.2 164.03C100.977 164.052 101.739 163.815 102.365 163.358C102.648 163.159 102.878 162.894 103.033 162.587C103.189 162.279 103.265 161.938 103.255 161.594C103.263 161.219 103.176 160.848 103.002 160.516C102.828 160.183 102.573 159.898 102.259 159.688C101.539 159.206 100.768 158.802 99.9589 158.485C99.5441 158.284 99.1444 158.082 98.7673 157.865C98.3877 157.646 98.0269 157.396 97.6889 157.118C97.3839 156.833 97.129 156.499 96.9347 156.131C96.731 155.742 96.6298 155.307 96.6406 154.869C96.5958 154.307 96.702 153.743 96.9484 153.235C97.1948 152.727 97.5726 152.293 98.0433 151.977C98.9696 151.412 100.041 151.124 101.128 151.147C101.632 151.157 102.136 151.194 102.636 151.259C103.274 151.371 103.898 151.549 104.499 151.79L104.333 153.232C103.377 152.833 102.354 152.615 101.316 152.589C100.584 152.556 99.8565 152.721 99.2123 153.068C98.9431 153.228 98.7258 153.461 98.5863 153.74C98.4105 154.084 98.3274 154.468 98.345 154.854C98.3473 155.146 98.4512 155.428 98.6391 155.653C98.8543 155.906 99.1089 156.123 99.3933 156.296C99.7175 156.468 100.087 156.654 100.502 156.849C100.917 157.043 101.324 157.23 101.724 157.447C102.593 157.8 103.39 158.306 104.077 158.941C104.418 159.284 104.685 159.692 104.861 160.14C105.037 160.589 105.119 161.068 105.102 161.549C105.125 162.178 104.974 162.801 104.665 163.35C104.375 163.835 103.978 164.249 103.503 164.561C102.532 165.142 101.418 165.449 100.283 165.45C98.9689 165.451 97.6637 165.234 96.4219 164.807L96.5803 163.141C97.6915 163.712 98.9259 164.007 100.178 164" fill="#C0C0C0"/>
<path d="M108.534 147.844H106.83V145.602H108.534V147.844ZM106.83 151.491H108.534V165.128H106.83V151.491Z" fill="#C0C0C0"/>
<path d="M119.396 162.962H119.343C118.959 163.756 118.323 164.404 117.533 164.807C116.787 165.209 115.959 165.438 115.111 165.476C114.263 165.513 113.417 165.359 112.639 165.024C112.088 164.807 111.603 164.455 111.228 164C110.717 163.308 110.435 162.475 110.421 161.616C110.367 160.645 110.664 159.686 111.258 158.911C111.802 158.252 112.524 157.759 113.34 157.492C114.23 157.177 115.158 156.978 116.1 156.901C117.073 156.849 118.008 156.819 118.913 156.819H119.237V156.161C119.288 153.825 118.242 152.654 116.1 152.649C114.667 152.636 113.26 153.027 112.043 153.778V152.171C113.311 151.569 114.694 151.24 116.1 151.207C119.368 151.172 120.982 152.868 120.942 156.296V162.326C120.915 163.285 120.961 164.244 121.078 165.196H119.396V162.962ZM119.237 158.269H118.747C117.993 158.269 117.239 158.269 116.53 158.321C115.812 158.382 115.104 158.535 114.426 158.777C113.84 158.964 113.318 159.308 112.918 159.771C112.484 160.267 112.26 160.909 112.292 161.564C112.257 161.925 112.319 162.288 112.472 162.617C112.624 162.946 112.861 163.23 113.159 163.44C113.742 163.847 114.444 164.055 115.157 164.03C115.984 164.076 116.805 163.87 117.51 163.44C118.029 163.108 118.451 162.647 118.732 162.102C118.991 161.591 119.147 161.036 119.192 160.466C119.192 159.913 119.245 159.457 119.245 159.098L119.237 158.269Z" fill="#C0C0C0"/>
</g>
<defs>
<clipPath id="clip0_1206_3640">
<rect width="117" height="90.48" fill="white" transform="translate(61 75)"/>
</clipPath>
</defs>
</svg>
