<svg width="240" height="240" viewBox="0 0 240 240" fill="none" xmlns="http://www.w3.org/2000/svg">
<g opacity="0.5" clip-path="url(#clip0_1206_3640)">
<path d="M122.155 177.593C154.431 176.157 179.407 149.351 177.941 117.721C176.476 86.0916 149.123 61.6149 116.848 63.0512C84.5726 64.4875 59.5963 91.2929 61.0619 122.923C62.5276 154.553 89.88 179.029 122.155 177.593Z" fill="#C0C0C0"/>
<path d="M161.901 113.813L165.707 113.476C165.845 114.33 165.96 115.206 166.028 116.06C166.097 116.914 166.166 117.791 166.212 118.667L162.428 119.004V120.622L171.601 119.768V118.173L167.748 118.532C167.748 117.656 167.748 116.802 167.565 115.926C167.381 115.049 167.381 114.195 167.244 113.341L171.074 112.981L170.821 111.386L161.648 112.24L161.901 113.813Z" fill="white"/>
<path d="M95.194 85.6536L93.1072 82.4399L94.0704 81.8556L96.7764 82.8893C98.1752 83.4287 99.5053 83.6085 100.468 82.5522L99.7346 81.3611C99.276 81.8556 98.5421 81.8331 97.4414 81.4735L94.4373 80.4173L95.4234 74.9113L93.7723 75.8551L93.0614 80.6869L92.2358 81.1589L90.2407 77.9452L88.8877 78.8666L93.6805 86.5525L95.194 85.6536Z" fill="white"/>
<path d="M115.281 71.6751V70.8211H115.74L118.331 70.6413L118.928 78.2598H120.556L120.051 70.6413L119.937 69.203H117.299L113.745 69.5176H113.516V70.9559V71.3155C113.928 76.7541 113.103 77.4058 112.163 77.4732H111.612V78.7992C111.993 78.8462 112.378 78.8462 112.759 78.7992C114.731 78.7317 115.717 77.4508 115.281 71.6751Z" fill="white"/>
<path d="M106.289 80.4848C107.192 80.1901 107.985 79.64 108.569 78.904C109.153 78.168 109.501 77.2791 109.57 76.3493C109.639 75.4195 109.425 74.4905 108.956 73.6796C108.487 72.8686 107.783 72.212 106.934 71.7926C106.084 71.3732 105.127 71.2097 104.182 71.3229C103.238 71.436 102.349 71.8207 101.628 72.4284C100.906 73.036 100.385 73.8395 100.129 74.7373C99.8728 75.6352 99.8939 76.5872 100.189 77.4734C100.378 78.0699 100.688 78.6231 101.1 79.0998C101.512 79.5765 102.018 79.967 102.587 80.2481C103.156 80.5291 103.778 80.6949 104.414 80.7356C105.05 80.7763 105.688 80.691 106.289 80.4848V80.4848ZM103.79 72.9337C104.196 72.8062 104.625 72.7598 105.049 72.7975C105.474 72.8352 105.887 72.9562 106.264 73.1532C106.64 73.3502 106.972 73.6193 107.241 73.9445C107.509 74.2696 107.708 74.6443 107.826 75.0462C108.1 75.8482 108.06 76.7219 107.711 77.4958C107.531 77.8733 107.273 78.21 106.953 78.4846C106.633 78.7593 106.259 78.9659 105.854 79.0915C105.44 79.2168 105.004 79.2574 104.573 79.2109C104.142 79.1644 103.726 79.0317 103.35 78.821C102.973 78.6103 102.645 78.3261 102.386 77.986C102.126 77.646 101.941 77.2573 101.841 76.8441C101.599 76.2005 101.585 75.496 101.801 74.8438C102.018 74.1917 102.451 73.6297 103.033 73.2483C103.268 73.1066 103.523 73.0005 103.79 72.9337V72.9337Z" fill="white"/>
<path d="M155.023 88.9118C155.46 88.4489 155.796 87.9047 156.013 87.3117C156.23 86.7186 156.324 86.0888 156.287 85.4598C156.251 84.8307 156.086 84.2153 155.802 83.65C155.517 83.0848 155.12 82.5814 154.634 82.1697C154.09 81.6448 153.422 81.261 152.689 81.053C151.957 80.845 151.182 80.8195 150.437 80.9787L150.804 82.5743C151.302 82.4264 151.83 82.4088 152.337 82.5231C152.844 82.6375 153.312 82.8798 153.693 83.226C154.238 83.7014 154.593 84.3513 154.694 85.0595C154.795 85.7677 154.635 86.488 154.244 87.0914C153.556 86.4172 152.845 85.743 152.111 85.0913L151.194 84.2823L150.254 85.361L151.148 86.1476C151.859 86.7768 152.57 87.451 153.258 88.1477C152.675 88.5949 151.949 88.8247 151.21 88.7959C150.471 88.767 149.766 88.4815 149.222 87.9904C148.824 87.6464 148.527 87.2047 148.362 86.7109C148.197 86.2171 148.169 85.6891 148.281 85.1812L146.63 84.9565C146.537 85.7249 146.634 86.5041 146.913 87.2279C147.193 87.9517 147.646 88.5988 148.235 89.1141C148.693 89.5414 149.232 89.8755 149.822 90.0969C150.412 90.3183 151.041 90.4226 151.673 90.4038C152.304 90.385 152.926 90.2434 153.501 89.9873C154.076 89.7311 154.594 89.3656 155.023 88.9118V88.9118Z" fill="white"/>
<path d="M131.862 112.802C133.75 110.655 134.769 107.905 134.729 105.071C134.758 103.287 134.374 101.519 133.608 99.9C132.842 98.2811 131.712 96.8528 130.303 95.722C127.666 93.7443 125.327 92.778 119.777 92.778H105.055V146.512H138.215V136.197C138.215 126.331 134.958 119.701 126.542 116.78C128.628 115.913 130.458 114.545 131.862 112.802V112.802ZM125.212 111.768C124.332 112.881 123.201 113.78 121.909 114.396C120.616 115.012 119.196 115.328 117.759 115.319V115.319V118.016C127.07 118.016 130.716 124.084 130.716 135.185V143.546H124.731V125.567H117.851V143.546H112.531V95.4523H117.966C119.334 95.3971 120.698 95.6476 121.953 96.1848C123.209 96.7221 124.323 97.5322 125.212 98.5537C126.373 99.9612 127.111 101.658 127.345 103.453H117.828V106.082H127.505C127.442 108.182 126.631 110.194 125.212 111.768V111.768Z" fill="white"/>
<path d="M140.142 80.3945C140.36 80.5028 140.598 80.5677 140.842 80.5856C141.086 80.6035 141.331 80.574 141.563 80.4989C141.795 80.4237 142.01 80.3043 142.195 80.1476C142.38 79.9908 142.532 79.7998 142.641 79.5855C142.756 79.3736 142.826 79.1414 142.847 78.9027C142.869 78.6639 142.841 78.4233 142.766 78.195C142.692 77.9668 142.571 77.7555 142.412 77.5736C142.252 77.3917 142.057 77.2429 141.839 77.1359C141.62 77.0277 141.382 76.9627 141.139 76.9448C140.895 76.9269 140.65 76.9564 140.417 77.0316C140.185 77.1067 139.97 77.2261 139.785 77.3829C139.6 77.5396 139.448 77.7306 139.339 77.9449C139.225 78.1568 139.155 78.389 139.133 78.6278C139.112 78.8666 139.139 79.1072 139.214 79.3354C139.289 79.5636 139.409 79.7749 139.569 79.9568C139.728 80.1387 139.923 80.2875 140.142 80.3945V80.3945Z" fill="white"/>
<path d="M125.668 76.4841L127.823 76.8437C128.557 76.9785 129.268 77.1134 129.979 77.2932L130.483 79.5405L132.203 80.0349L129.91 70.1466L128.419 69.9668L122.595 78.3494L124.338 78.5067L125.668 76.4841ZM128.763 71.9894L129.658 75.8099L128.098 75.4953L126.539 75.2481L128.763 71.9894Z" fill="white"/>
<path d="M162.498 99.6766C161.601 100.008 160.823 100.592 160.264 101.355C159.704 102.119 159.388 103.027 159.354 103.967C159.32 104.906 159.57 105.834 160.073 106.634C160.576 107.434 161.31 108.071 162.181 108.464C163.052 108.856 164.023 108.988 164.97 108.841C165.918 108.695 166.8 108.277 167.505 107.64C168.211 107.003 168.708 106.177 168.936 105.263C169.163 104.35 169.109 103.392 168.782 102.508C168.578 101.904 168.25 101.348 167.818 100.874C167.386 100.399 166.858 100.018 166.269 99.7519C165.679 99.4863 165.04 99.3425 164.392 99.3295C163.743 99.3165 163.098 99.4347 162.498 99.6766ZM167.291 103.003C167.435 103.396 167.496 103.814 167.472 104.231C167.448 104.649 167.338 105.057 167.15 105.432C166.962 105.807 166.699 106.142 166.376 106.415C166.054 106.689 165.679 106.896 165.273 107.025C165.12 107.038 164.967 107.038 164.814 107.025C164.19 107.193 163.528 107.164 162.921 106.943C162.315 106.723 161.794 106.321 161.432 105.795C161.07 105.27 160.885 104.646 160.904 104.012C160.922 103.378 161.143 102.766 161.535 102.261C161.646 102.13 161.768 102.01 161.902 101.901V101.901L162.154 101.722L162.429 101.519C162.617 101.407 162.817 101.317 163.026 101.25C163.83 100.947 164.721 100.947 165.525 101.25C165.93 101.402 166.297 101.637 166.601 101.94C166.905 102.242 167.141 102.604 167.291 103.003Z" fill="white"/>
<path d="M154.108 95.3842L157.318 93.3166L157.937 94.238L156.974 96.9349C156.643 97.5075 156.511 98.1702 156.598 98.8229C156.685 99.4755 156.986 100.083 157.456 100.553L158.625 99.789C158.121 99.362 158.121 98.6429 158.465 97.5417L159.428 94.5752L165.069 95.3617L164.06 93.7661L159.107 93.2267L158.602 92.4402L161.905 90.44L160.919 89.159L153.236 94.1032L154.108 95.3842Z" fill="white"/>
<path d="M75.1957 104.823C75.5607 104.857 75.9277 104.784 76.2504 104.614C76.5731 104.443 76.8372 104.183 77.0093 103.866C77.1814 103.548 77.2539 103.188 77.2176 102.831C77.1813 102.473 77.0379 102.134 76.8054 101.857C76.5729 101.579 76.2617 101.375 75.9111 101.27C75.5604 101.165 75.1859 101.164 74.8348 101.268C74.4837 101.371 74.1717 101.574 73.938 101.851C73.7043 102.128 73.5594 102.466 73.5216 102.823C73.4963 103.063 73.5196 103.304 73.5902 103.535C73.6609 103.765 73.7774 103.979 73.933 104.165C74.0887 104.351 74.2804 104.505 74.4972 104.618C74.7139 104.731 74.9513 104.801 75.1957 104.823V104.823Z" fill="white"/>
<path d="M135.118 159.546L132.298 167.412L130.234 161.097L128.651 161.457L131.495 170.087L133.031 169.704L135.806 161.906L137.87 168.176L139.361 167.592L136.54 158.985L135.118 159.546Z" fill="white"/>
<path d="M119.523 165.188C119.15 165.183 118.783 165.288 118.47 165.489C118.157 165.69 117.913 165.977 117.768 166.315C117.622 166.652 117.583 167.025 117.655 167.384C117.727 167.744 117.907 168.074 118.171 168.333C118.435 168.592 118.772 168.768 119.139 168.839C119.506 168.909 119.886 168.871 120.231 168.729C120.575 168.586 120.869 168.347 121.074 168.04C121.278 167.734 121.385 167.374 121.381 167.008C121.381 166.769 121.333 166.532 121.239 166.311C121.146 166.09 121.009 165.89 120.837 165.721C120.664 165.552 120.46 165.418 120.234 165.326C120.009 165.235 119.767 165.188 119.523 165.188V165.188Z" fill="white"/>
<path d="M144.061 154.872L146.079 158.086L145.116 158.67L142.387 157.659C141.816 157.316 141.146 157.166 140.48 157.231C139.813 157.296 139.187 157.572 138.695 158.018L139.452 159.209C139.911 158.715 140.622 158.715 141.745 159.074L144.749 160.108L143.809 165.614L145.437 164.67L146.148 159.839L146.951 159.344L148.969 162.558L150.299 161.636L145.392 153.973L144.061 154.872Z" fill="white"/>
<path d="M152.844 146.871L154.381 155.074L149.381 150.579L148.212 151.658L155.023 157.793L156.169 156.692L154.656 148.579L159.609 153.029L160.618 151.815L153.807 145.68L152.844 146.871Z" fill="white"/>
<path d="M167.292 123.814C166.667 123.691 166.023 123.695 165.399 123.824C164.776 123.953 164.186 124.204 163.664 124.564C163.143 124.923 162.702 125.383 162.368 125.915C162.033 126.446 161.813 127.039 161.719 127.657C161.594 128.27 161.595 128.902 161.723 129.515C161.851 130.127 162.103 130.709 162.464 131.224C162.826 131.74 163.289 132.179 163.827 132.516C164.364 132.853 164.966 133.08 165.595 133.185C166.834 133.341 168.087 133.024 169.093 132.299C170.1 131.574 170.783 130.498 171.001 129.292C171.22 128.087 170.956 126.846 170.265 125.826C169.575 124.806 168.51 124.085 167.292 123.814V123.814ZM169.585 129.05C169.512 129.476 169.347 129.882 169.104 130.241C168.736 130.749 168.227 131.142 167.637 131.373C167.047 131.604 166.402 131.664 165.778 131.545C165.041 131.446 164.362 131.098 163.86 130.56C163.357 130.022 163.062 129.329 163.026 128.601C162.994 128.385 162.994 128.165 163.026 127.949C163.096 127.522 163.26 127.116 163.508 126.758C163.876 126.25 164.385 125.857 164.975 125.626C165.564 125.395 166.21 125.335 166.833 125.454C167.271 125.486 167.697 125.607 168.083 125.809C168.47 126.011 168.81 126.291 169.08 126.63C169.35 126.968 169.545 127.359 169.651 127.776C169.758 128.193 169.775 128.627 169.7 129.05H169.585Z" fill="white"/>
<path d="M103.493 162.153C103.332 162.649 103.351 163.185 103.548 163.668C103.744 164.152 104.106 164.554 104.571 164.805C104.139 164.87 103.734 165.054 103.405 165.337C103.075 165.62 102.836 165.989 102.714 166.401C102.624 166.67 102.592 166.955 102.62 167.237C102.648 167.52 102.734 167.793 102.874 168.041C103.344 168.786 104.093 169.318 104.961 169.525L108.355 170.379L110.946 161.681L107.438 160.693C105.534 160.131 103.975 160.58 103.493 162.153ZM105.649 168.176C104.663 167.884 104.204 167.3 104.411 166.603C104.457 166.465 104.526 166.336 104.617 166.221C104.75 166.052 104.926 165.92 105.127 165.837C105.328 165.754 105.547 165.724 105.764 165.749L106.452 165.884L107.965 166.311L107.277 168.558L105.649 168.176ZM106.498 164.491C105.259 164.131 104.801 163.524 105.007 162.783C105.083 162.5 105.264 162.256 105.514 162.098C105.765 161.94 106.066 161.88 106.36 161.929C106.604 161.898 106.85 161.898 107.094 161.929L109.066 162.49L108.355 164.895L106.498 164.491Z" fill="white"/>
<path d="M159.61 135.545L162.867 137.365L166.352 139.23C165.206 138.938 158.418 138.152 158.418 138.152L157.799 139.365C157.799 139.365 162.385 144.399 163.371 145.163C162.224 144.601 160.917 144.04 159.817 143.568L156.308 142.084L155.391 143.523L164.013 147.074L165.183 145.118C165.183 145.118 160.848 140.489 160.046 139.815C161.101 140.039 167.384 140.714 167.384 140.714L168.278 138.466L160.206 133.814L159.61 135.545Z" fill="white"/>
<path d="M77.7188 130.016L75.4255 129.455C75.265 128.758 75.1274 128.061 75.0128 127.342C74.8981 126.623 74.7605 125.926 74.7605 125.207L76.7785 123.994L76.6639 122.218L67.8809 127.702L68.1102 129.162L78.1315 131.679L77.7188 130.016ZM73.3387 126.039C73.3387 126.556 73.4763 127.072 73.568 127.567L73.8432 129.095L69.9448 128.174L73.3387 126.039Z" fill="white"/>
<path d="M94.6865 158.221C93.7233 159.816 94.4113 161.389 96.2229 162.423L97.4842 163.142L95.7872 165.974L97.1861 166.783L101.772 158.94L99.25 157.389C98.9056 157.121 98.5064 156.928 98.0793 156.823C97.6523 156.719 97.2073 156.706 96.7746 156.785C96.342 156.864 95.9316 157.033 95.5713 157.28C95.2111 157.528 94.9093 157.849 94.6865 158.221V158.221ZM98.1951 161.884L97.0026 161.187C95.9248 160.58 95.5808 159.794 96.0624 158.94C96.1648 158.745 96.3107 158.575 96.4894 158.442C96.668 158.31 96.8748 158.219 97.0943 158.176C97.5957 158.14 98.0952 158.266 98.5161 158.535L99.7545 159.254L98.1951 161.884Z" fill="white"/>
<path d="M83.4059 97.6765C85.6128 94.3208 88.3004 91.2934 91.3863 88.6871L90.2167 87.7207L84.3002 82.6417C83.9104 83.0013 83.4976 83.3609 83.1307 83.7429L89.0243 88.7096C88.1299 89.5411 87.2814 90.4176 86.4559 91.294L80.5852 86.3274L79.5303 87.541L85.401 92.5076C84.6213 93.429 83.8875 94.3729 83.1078 95.3393L77.283 90.3726C76.9619 90.7996 76.6409 91.2266 76.3428 91.6761L82.2593 96.7101L83.4059 97.6765Z" fill="white"/>
<path d="M70.1742 119.184C70.743 119.257 71.3205 119.147 71.8205 118.872C72.3206 118.596 72.7164 118.17 72.949 117.656L74.5772 119.027C74.8075 119.219 74.9803 119.469 75.0772 119.75C75.1742 120.031 75.1915 120.332 75.1275 120.622H76.5264C76.712 120.136 76.7197 119.601 76.5483 119.109C76.3768 118.617 76.0369 118.199 75.5862 117.926L73.293 116.128V115.004L76.6181 115.296L76.8474 113.7L67.6746 112.981C67.6746 113.476 67.3764 115.476 67.3535 115.723C67.3764 118.195 68.6148 119.184 70.1742 119.184ZM69.234 114.689L71.9858 114.914V115.948C71.9858 116.869 71.3666 117.656 70.4035 117.566C69.4403 117.476 69.0964 117.072 69.1881 115.791C69.1881 115.453 69.211 115.094 69.2798 114.689H69.234Z" fill="white"/>
<path d="M84.0943 144.13C81.7943 140.825 79.9874 137.215 78.7281 133.41L77.3522 134.062L70.335 137.455L70.8853 138.938L77.8796 135.545C78.3154 136.691 78.774 137.792 79.3014 138.871L72.4218 142.242L73.1327 143.68L80.0123 140.309C80.5627 141.358 81.1589 142.392 81.801 143.411L74.7609 146.804L75.6323 148.153L82.6495 144.782L84.0943 144.13Z" fill="white"/>
<path d="M93.3534 153.844L88.0117 161.289L89.3437 162.207L94.6854 154.761L93.3534 153.844Z" fill="white"/>
<path d="M88.1074 148.736C87.5863 148.174 86.9357 147.742 86.2097 147.476C85.4837 147.21 84.7033 147.118 83.9337 147.208L84.186 148.804C84.7077 148.694 85.2498 148.721 85.7572 148.883C86.2646 149.045 86.7194 149.335 87.0754 149.725C87.6836 150.354 88.012 151.194 87.9884 152.06C87.9647 152.926 87.5909 153.747 86.9493 154.343C86.3076 154.939 85.4507 155.261 84.5669 155.238C83.6831 155.215 82.8449 154.848 82.2367 154.22C81.8497 153.851 81.5694 153.389 81.4244 152.879C81.2794 152.37 81.2748 151.832 81.4112 151.321L79.783 150.983C79.5874 151.973 79.7137 152.997 80.1441 153.912C80.5745 154.827 81.2872 155.586 82.1817 156.083C83.0762 156.579 84.1072 156.788 85.1293 156.68C86.1513 156.571 87.1128 156.151 87.878 155.478C88.3565 155.057 88.7433 154.546 89.015 153.975C89.2868 153.404 89.4379 152.785 89.4593 152.155C89.4807 151.525 89.372 150.898 89.1397 150.31C88.9073 149.723 88.5562 149.187 88.1074 148.736V148.736Z" fill="white"/>
</g>
<defs>
<clipPath id="clip0_1206_3640">
<rect width="117" height="114.66" fill="white" transform="translate(61 63)"/>
</clipPath>
</defs>
</svg>
