<?xml version="1.0" encoding="UTF-8"?>
<svg id="Layer_1" data-name="Layer 1" xmlns="http://www.w3.org/2000/svg" viewBox="0 0 24 24">
  <path d="M20.5,11.73s0,0,0,0,0,0,0,0c0-.1-.02-.2-.06-.29-.04-.09-.09-.17-.16-.24,0,0,0,0,0,0l-6.05-6.02c-.29-.29-.77-.29-1.06,0-.29,.29-.29,.77,0,1.06l4.76,4.74H4.75c-.41,0-.75,.34-.75,.75s.34,.75,.75,.75h13.18l-4.76,4.74c-.29,.29-.29,.77,0,1.06,.15,.15,.34,.22,.53,.22s.38-.07,.53-.22l6.05-6.02c.07-.07,.12-.15,.16-.24,.03-.08,.05-.17,.05-.26,0-.01,0-.02,0-.03Z"/>
</svg>