<?xml version="1.0" encoding="UTF-8"?>
<svg id="Layer_1" data-name="Layer 1" xmlns="http://www.w3.org/2000/svg" viewBox="0 0 24 24">
  <defs>
    <style>
      .cls-1 {
        fill-rule: evenodd;
      }
    </style>
  </defs>
  <path class="cls-1" d="M16.53,3H7.46c-3.17,0-5.46,2.56-5.46,5.86v6.28c0,3.3,2.29,5.86,5.46,5.86h9.06c1.52-.02,2.96-.66,4-1.77,1.03-1.12,1.57-2.61,1.48-4.13v-6.24c.09-1.48-.44-2.97-1.48-4.09-1.03-1.12-2.47-1.76-3.99-1.77Zm-9.07,1.53h9.05c1.1,.01,2.14,.48,2.89,1.29,.75,.81,1.14,1.89,1.07,3v6.33c.06,1.15-.32,2.23-1.07,3.04-.75,.81-1.8,1.27-2.89,1.29H7.46c-2.29,0-3.94-1.84-3.94-4.33v-6.28c0-2.49,1.65-4.33,3.94-4.33Zm10.57,4.11c-.26-.33-.74-.38-1.07-.12l-4.1,3.3-.12,.08c-.48,.3-1.12,.27-1.58-.09l-4.13-3.3-.09-.06c-.32-.19-.74-.11-.97,.19-.26,.33-.21,.81,.12,1.07l4.13,3.3,.16,.12c1.04,.71,2.42,.67,3.42-.11l4.11-3.31,.08-.08c.25-.27,.27-.7,.04-1Z"/>
</svg>