<?xml version="1.0" encoding="UTF-8"?>
<svg id="Layer_1" data-name="Layer 1" xmlns="http://www.w3.org/2000/svg" viewBox="0 0 24 24">
  <defs>
    <style>
      .cls-1 {
        fill-rule: evenodd;
      }
    </style>
  </defs>
  <path class="cls-1" d="M6.48,2h-.03c-1.32-.06-3.18,1.52-3.86,2.67-.75,1.03-.77,2.4-.11,3.98l.1,.24c1.73,4.27,8.24,10.77,12.49,12.55,1.63,.76,3.08,.78,4.22-.05,1-.57,2.65-2.49,2.6-3.84-.05-.56-.3-1.01-.71-1.43l-.1-.1-.27-.25c-.99-.89-2.71-2.15-3.24-2.26-.62-.13-1.05-.01-1.71,.35l-.25,.14c-.47,.27-.64,.32-.87,.24-2.37-.97-4.05-2.66-5.03-5.07-.06-.18-.03-.33,.17-.71l.11-.19c.45-.79,.6-1.23,.46-1.91l-.02-.09c-.23-.68-1.66-2.58-2.45-3.41l-.13-.13c-.41-.4-.86-.66-1.39-.71Zm-.11,1.46h.05c.09,.04,.21,.1,.33,.21l.09,.08,.17,.18c.67,.74,1.97,2.49,2.02,2.7,.04,.2,0,.36-.22,.75l-.11,.2c-.47,.82-.61,1.35-.35,2.1,1.14,2.8,3.1,4.77,5.86,5.91,.71,.26,1.22,.16,1.93-.23l.25-.14c.49-.28,.66-.34,.88-.3,.21,.04,2.1,1.46,2.8,2.13l.08,.08c.18,.18,.28,.36,.29,.48,0,.3-.29,.86-.81,1.47-.37,.43-.86,.88-1.07,1.03l-.05,.03c-.68,.49-1.52,.51-2.64,.03l-.21-.09c-3.85-1.61-9.89-7.6-11.64-11.54l-.1-.24c-.54-1.2-.59-2.07-.2-2.71l.08-.12c.45-.75,1.81-1.92,2.48-2.01h.09Zm8.06-1.22h.1c3.93,.44,7.03,3.56,7.47,7.51,.04,.4-.24,.76-.64,.81-.4,.05-.76-.24-.8-.65-.37-3.27-2.94-5.85-6.19-6.21-.4-.04-.69-.41-.64-.81,.04-.33,.29-.59,.61-.64h.1Zm.06,3.45h.1c2.01,.41,3.58,1.98,3.97,4,.08,.4-.18,.78-.58,.86-.39,.08-.78-.18-.85-.58-.28-1.43-1.39-2.55-2.82-2.83-.39-.08-.65-.46-.57-.86,.06-.33,.34-.57,.66-.59h.1Z"/>
</svg>