<?xml version="1.0" encoding="UTF-8"?>
<svg id="Layer_1" data-name="Layer 1" xmlns="http://www.w3.org/2000/svg" viewBox="0 0 129 48">

  <path
    d="M19.51,16.64c.17,.12,.25,.32,.25,.61,.02,.26,.04,.54,.04,.83v15.37c0,.19-.01,.38-.04,.58v.54c-.02,.19-.05,.36-.07,.5,0,.17-.01,.35-.04,.54-.1,.34-.18,.65-.25,.94-.05,.31-.13,.6-.25,.86-.41,.91-.94,1.67-1.58,2.27-.62,.6-1.39,1.09-2.3,1.48-.26,.12-.53,.22-.79,.29s-.54,.14-.83,.22c-.26,.07-.53,.12-.79,.14-.26,.02-.53,.06-.79,.11h-.29c-.1,.02-.2,.04-.32,.04-.1,.02-.2,.02-.32,0-.12,0-.24,.01-.36,.04-.12,.02-.28,.04-.47,.04s-.35-.01-.47-.04h-.32c-.1,0-.19-.01-.29-.04-.19-.05-.4-.07-.61-.07-.19,0-.37-.02-.54-.07-.05-.02-.11-.04-.18-.04s-.13-.01-.18-.04c-.24-.05-.48-.11-.72-.18-.22-.05-.43-.12-.65-.22-.91-.38-1.73-.88-2.45-1.48-.72-.58-1.25-1.36-1.58-2.34-.05-.07-.07-.14-.07-.22s-.01-.13-.04-.18c-.07-.31-.05-.55,.07-.72,.14-.14,.34-.24,.58-.29s.5-.07,.79-.07c.31,.02,.6,.04,.86,.04h1.51c.1,.02,.2,.04,.32,.04,.38,.1,.62,.22,.72,.36,.1,.17,.24,.38,.43,.65,.07,.1,.18,.22,.32,.36,.02,.05,.05,.08,.07,.11,.02,.02,.05,.06,.07,.11,.19,.14,.4,.28,.61,.4,.22,.12,.46,.23,.72,.32,.17,.05,.34,.07,.5,.07,.17,.02,.35,.06,.54,.11h.4c.17,.05,.38,.05,.65,0,.26-.02,.47-.06,.61-.11,.12-.05,.22-.07,.29-.07,.1,0,.19-.02,.29-.07,.5-.22,.92-.5,1.26-.86,.34-.36,.61-.78,.83-1.26,.05-.14,.08-.29,.11-.43s.06-.3,.11-.47c.05-.22,.07-.44,.07-.68,.02-.26,.04-.53,.04-.79v-.29c.02-.1,.02-.18,0-.25-.05-.12-.07-.23-.07-.32,.02-.1,.01-.19-.04-.29-.02-.05-.06-.08-.11-.11-.02-.02-.06-.06-.11-.11-.22-.02-.4,.02-.54,.14-.12,.12-.24,.23-.36,.32-.22,.17-.43,.32-.65,.47-.22,.14-.46,.28-.72,.4s-.53,.22-.79,.29c-.26,.07-.54,.14-.83,.22-.14,.02-.29,.05-.43,.07-.12,0-.24,.01-.36,.04-.12,.02-.31,.04-.58,.04s-.46-.01-.58-.04h-.29c-.07-.02-.16-.04-.25-.04-.07,0-.16-.01-.25-.04-.34-.07-.66-.13-.97-.18-.31-.07-.6-.17-.86-.29-1.03-.41-1.87-.97-2.52-1.69-.62-.74-1.15-1.63-1.58-2.66-.12-.26-.2-.54-.25-.83s-.12-.58-.22-.86c0-.12-.01-.22-.04-.29-.05-.19-.07-.4-.07-.61,0-.24-.02-.46-.07-.65-.02-.12-.04-.23-.04-.32v-.36c-.02-.12-.04-.26-.04-.43,0-.19,.01-.35,.04-.47v-.36c.02-.1,.02-.19,0-.29,0-.1,.02-.19,.07-.29,.05-.24,.08-.47,.11-.68,.02-.24,.06-.48,.11-.72,.14-.48,.29-.94,.43-1.37,.17-.43,.37-.84,.61-1.22,.12-.24,.25-.46,.4-.65,.17-.22,.34-.43,.5-.65,.07-.12,.17-.24,.29-.36,.14-.12,.28-.23,.4-.32l.22-.22c.12-.1,.24-.18,.36-.25,.12-.1,.24-.18,.36-.25,.31-.19,.64-.36,.97-.5,.34-.14,.71-.28,1.12-.4,.19-.07,.38-.11,.58-.11,.22-.02,.42-.06,.61-.11,.1-.02,.23-.02,.4,0,.17,.02,.28,.01,.32-.04,.77-.02,1.45,.05,2.05,.22,.62,.17,1.18,.41,1.66,.72,.07,.05,.14,.11,.22,.18,.07,.05,.16,.11,.25,.18,.14,.12,.28,.24,.4,.36,.12,.12,.26,.23,.43,.32,.05,.02,.11,.05,.18,.07,.1,.02,.17,.01,.22-.04,.12-.05,.19-.13,.22-.25s.06-.24,.11-.36c.05-.12,.08-.24,.11-.36,.05-.14,.12-.26,.22-.36,.14-.1,.31-.14,.5-.14,.22-.02,.43-.04,.65-.04h1.84c.26,0,.49,.01,.68,.04,.22,0,.4,.06,.54,.18Zm-4.93,11.12c.1-.22,.18-.49,.25-.83,.07-.34,.12-.68,.14-1.04,.02-.38,.02-.76,0-1.12,0-.36-.04-.68-.11-.97-.05-.1-.07-.17-.07-.22,.02-.07,.02-.16,0-.25-.05-.17-.1-.34-.14-.5-.05-.17-.11-.32-.18-.47-.34-.84-.82-1.49-1.44-1.94-.62-.46-1.54-.68-2.74-.68-.05,.05-.12,.07-.22,.07-.07-.02-.14-.02-.22,0-.17,.05-.32,.1-.47,.14-.14,.02-.29,.06-.43,.11-.62,.26-1.1,.66-1.44,1.19s-.61,1.12-.83,1.76c-.05,.12-.07,.22-.07,.29s-.01,.17-.04,.29c-.07,.26-.12,.65-.14,1.15-.02,.5,0,.91,.07,1.22v.36c.05,.19,.08,.38,.11,.58,.02,.17,.06,.35,.11,.54,.22,.62,.48,1.18,.79,1.66,.31,.46,.74,.83,1.3,1.12,.24,.12,.58,.24,1.01,.36,.17,0,.3,.01,.4,.04,.05,0,.12,.01,.22,.04,.1,0,.17-.01,.22-.04h.36c.22-.05,.42-.08,.61-.11,.19-.02,.38-.08,.58-.18,.6-.24,1.08-.58,1.44-1.01,.38-.43,.7-.95,.94-1.55ZM28.92,9.58c.17,.19,.25,.48,.25,.86v2.09c0,.34-.08,.56-.25,.68-.14,.12-.34,.19-.58,.22-.22,.02-.46,.04-.72,.04h-2.02c-.26,0-.5-.01-.72-.04-.19-.02-.36-.1-.5-.22-.1-.07-.17-.2-.22-.4-.02-.22-.05-.44-.07-.68v-.79c.02-.26,.04-.49,.04-.68v-.5c.02-.17,.07-.31,.14-.43,.05-.1,.11-.17,.18-.22,.1-.05,.19-.1,.29-.14h.18c.07-.02,.13-.04,.18-.04h2.63c.24,0,.47,.01,.68,.04s.38,.1,.5,.22Zm.25,23.44c0,.48-.01,.89-.04,1.22-.02,.34-.24,.56-.65,.68-.14,.05-.3,.07-.47,.07-.17-.02-.35-.04-.54-.04h-2.02c-.22,0-.43-.01-.65-.04-.19-.02-.34-.1-.43-.22-.14-.17-.23-.37-.25-.61V17.36c0-.24,.05-.43,.14-.58,.14-.17,.35-.28,.61-.32,.05-.02,.11-.02,.18,0,.1,0,.17-.01,.22-.04h2.27c.19-.02,.35-.02,.47,0h.29c.14,.05,.28,.08,.4,.11,.12,.02,.22,.1,.29,.22,.1,.12,.14,.29,.14,.5,.02,.22,.04,.44,.04,.68v15.08Zm5.21-23.69h2.63c.24,0,.47,.01,.68,.04,.22,.02,.38,.1,.5,.22,.14,.17,.22,.4,.22,.68,.02,.26,.04,.54,.04,.83v22.64c.02,.36-.02,.64-.14,.83-.12,.19-.34,.32-.65,.4-.14,.05-.31,.06-.5,.04-.17-.02-.34-.04-.5-.04h-1.73c-.26,0-.5-.01-.72-.04-.22-.02-.4-.1-.54-.22-.14-.12-.23-.3-.25-.54V11.78c0-.31-.01-.68-.04-1.12,0-.43,.06-.74,.18-.94,.05-.1,.11-.17,.18-.22,.1-.05,.19-.1,.29-.14h.18c.07-.02,.13-.04,.18-.04Zm18.75,6.62c.89-.02,1.67,.07,2.34,.29s1.26,.52,1.76,.9c.19,.14,.36,.31,.5,.5,.17,.19,.35,.38,.54,.58,.05,.05,.12,.12,.22,.22,.12,.07,.24,.08,.36,.04,.26-.07,.52-.24,.76-.5,.24-.29,.47-.5,.68-.65,.34-.26,.7-.48,1.08-.65,.38-.19,.82-.37,1.3-.54,.19-.05,.42-.08,.68-.11,.29-.05,.58-.07,.86-.07,.31-.02,.6-.02,.86,0,.29,.02,.54,.06,.76,.11,.12,.02,.23,.04,.32,.04s.2,.02,.32,.07c.34,.1,.66,.19,.97,.29,.31,.1,.6,.23,.86,.4,1.01,.62,1.76,1.54,2.27,2.74,.1,.22,.17,.44,.22,.68,.05,.22,.1,.43,.14,.65,.02,.17,.04,.32,.04,.47,.02,.14,.05,.29,.07,.43v.36c.02,.14,.02,.31,0,.5v10.33c.02,.24,.02,.48,0,.72,0,.22-.02,.43-.07,.65-.05,.19-.12,.32-.22,.4-.14,.12-.34,.19-.58,.22h-2.63c-.34,0-.64-.02-.9-.07s-.44-.18-.54-.4c-.07-.17-.11-.35-.11-.54v-9.4c.02-.14,.01-.28-.04-.4v-.72c0-.14-.01-.29-.04-.43-.02-.1-.04-.19-.04-.29,0-.12-.01-.23-.04-.32-.1-.36-.2-.67-.32-.94-.1-.29-.25-.54-.47-.76-.34-.34-.74-.58-1.22-.72-.1-.02-.18-.02-.25,0-.07,0-.16-.02-.25-.07-.1-.02-.22-.04-.36-.04-.12-.02-.24-.02-.36,0-.14,.05-.29,.07-.43,.07s-.29,.02-.43,.07c-.7,.24-1.2,.6-1.51,1.08-.41,.55-.66,1.25-.76,2.09-.07,.82-.11,1.72-.11,2.7v8.14c0,.24-.06,.43-.18,.58-.12,.17-.3,.28-.54,.32-.22,.02-.47,.04-.76,.04h-2.59c-.19-.02-.36-.06-.5-.11-.24-.12-.38-.31-.43-.58-.02-.26-.04-.56-.04-.9v-8.71c0-.7-.02-1.36-.07-1.98-.05-.62-.2-1.14-.47-1.55-.19-.34-.44-.59-.76-.76-.29-.17-.65-.31-1.08-.43-.1-.02-.19-.02-.29,0-.1,0-.2-.01-.32-.04-.26-.05-.52-.02-.76,.07-.05,0-.1,.01-.14,.04h-.14c-.38,.12-.76,.32-1.12,.61-.38,.29-.68,.62-.9,1.01-.19,.36-.34,.78-.43,1.26-.07,.46-.12,.96-.14,1.51v9.5c0,.22-.04,.41-.11,.58-.1,.22-.28,.35-.54,.4s-.56,.07-.9,.07h-2.59c-.22-.02-.4-.08-.54-.18-.22-.12-.34-.34-.36-.65V17.29c.02-.22,.08-.4,.18-.54,.12-.14,.31-.24,.58-.29h.22c.12-.02,.24-.04,.36-.04h1.87c.19,0,.37,.01,.54,.04,.19,0,.36,.02,.5,.07,.19,.07,.31,.19,.36,.36,.07,.17,.13,.36,.18,.58,.02,.07,.02,.14,0,.22,0,.05,.02,.1,.07,.14,.02,.07,.05,.13,.07,.18,.05,.02,.1,.06,.14,.11,.29,.02,.53-.06,.72-.25,.19-.22,.37-.38,.54-.5,.34-.24,.67-.46,1.01-.65,.36-.19,.74-.35,1.15-.47,.22-.07,.43-.12,.65-.14s.44-.06,.68-.11c.07-.02,.18-.02,.32,0,.14,0,.24-.01,.29-.04Zm38.85,17.6c.05,.26,.07,.53,.07,.79,.02,.26-.1,.44-.36,.54-.14,.07-.31,.11-.5,.11h-3.17c-.19-.02-.35-.08-.47-.18-.17-.1-.3-.23-.4-.4-.07-.19-.18-.35-.32-.47-.05-.05-.11-.08-.18-.11-.07-.05-.17-.06-.29-.04-.12,.05-.24,.11-.36,.18-.1,.07-.2,.13-.32,.18-.12,.1-.25,.18-.4,.25-.14,.07-.29,.14-.43,.22-.31,.14-.64,.26-.97,.36-.34,.07-.68,.16-1.04,.25-.17,.05-.34,.07-.5,.07-.14,.02-.3,.05-.47,.07h-.22c-.07,.02-.14,.04-.22,.04h-.4c-.24,.05-.48,.05-.72,0h-.32c-.17-.05-.34-.07-.5-.07-.14,.02-.29,.01-.43-.04-.24-.05-.47-.1-.68-.14-.22-.02-.42-.08-.61-.18-.7-.26-1.3-.6-1.8-1.01-.48-.43-.86-1-1.15-1.69-.07-.17-.14-.35-.22-.54-.05-.19-.1-.4-.14-.61-.05-.12-.07-.24-.07-.36,.02-.12,.02-.24,0-.36-.02-.07-.05-.22-.07-.43,0-.24,.01-.41,.04-.5,.05-.24,.07-.44,.07-.61,.07-.26,.14-.53,.22-.79,.07-.29,.17-.54,.29-.76,.41-.7,.88-1.22,1.4-1.58,.53-.36,1.2-.67,2.02-.94,.31-.12,.64-.2,.97-.25s.67-.11,1.01-.18c.19-.05,.4-.07,.61-.07,.22-.02,.43-.06,.65-.11,.17-.05,.34-.06,.5-.04,.17,0,.35-.02,.54-.07,.17-.05,.34-.07,.5-.07s.35-.02,.54-.07c.5-.12,.96-.22,1.37-.29,.43-.1,.82-.31,1.15-.65,.22-.22,.36-.46,.43-.72,.02-.07,.02-.13,0-.18,0-.05,.01-.1,.04-.14,.02-.05,.04-.12,.04-.22v-.22c-.02-.1-.05-.19-.07-.29,0-.1-.01-.18-.04-.25-.24-.72-.74-1.21-1.51-1.48-.22-.07-.48-.12-.79-.14-.29-.05-.59-.06-.9-.04-.31,0-.61,.02-.9,.07-.29,.05-.54,.11-.76,.18-.14,.05-.29,.12-.43,.22-.12,.07-.24,.16-.36,.25-.12,.1-.25,.23-.4,.4-.12,.17-.2,.32-.25,.47-.12,.24-.23,.47-.32,.68-.07,.22-.24,.36-.5,.43-.19,.05-.4,.07-.61,.07h-2.02c-.12,0-.24,.01-.36,.04-.12,0-.23-.01-.32-.04h-.32s-.11-.04-.18-.04-.13-.02-.18-.07c-.19-.05-.32-.2-.4-.47-.02-.12-.02-.24,0-.36,.02-.12,.05-.23,.07-.32,.07-.26,.14-.5,.22-.72,.1-.24,.2-.46,.32-.65,.07-.12,.14-.24,.22-.36,.07-.12,.14-.24,.22-.36,.19-.26,.43-.52,.72-.76,.05-.02,.12-.08,.22-.18,.12-.1,.23-.18,.32-.25s.2-.14,.32-.22c.41-.26,.84-.47,1.3-.61,.46-.17,.92-.32,1.4-.47,.29-.07,.59-.12,.9-.14,.31-.02,.62-.07,.94-.14,.1-.02,.24-.02,.43,0,.22,.02,.35,.01,.4-.04,.98-.02,1.92,.01,2.81,.11,.91,.1,1.73,.28,2.45,.54,.74,.26,1.38,.62,1.91,1.08,.53,.43,.94,1,1.22,1.69,.17,.41,.26,.88,.29,1.4,.02,.53,.04,1.07,.04,1.62v9.43c0,.46,.05,.88,.14,1.26,.02,.07,.04,.16,.04,.25,0,.07,.01,.14,.04,.22Zm-5.29-5.54c.02-.12,.04-.25,.04-.4,0-.17-.01-.31-.04-.43-.05-.14-.07-.28-.07-.4s-.05-.22-.14-.29c-.12-.1-.3-.14-.54-.14-.1,.02-.18,.05-.25,.07-.07,0-.16,.01-.25,.04-.17,.05-.35,.08-.54,.11s-.38,.06-.58,.11c-.07,.02-.18,.04-.32,.04-.31,.07-.62,.12-.94,.14-.31,.02-.61,.08-.9,.18-.19,.05-.37,.1-.54,.14-.17,.02-.34,.07-.5,.14-.5,.22-.94,.54-1.3,.97-.34,.43-.46,1.03-.36,1.8,.05,.41,.18,.74,.4,1.01,.17,.26,.42,.48,.76,.65,.34,.14,.7,.25,1.08,.32,.41,.07,.83,.1,1.26,.07,.46-.05,.88-.13,1.26-.25,.62-.19,1.12-.49,1.48-.9,.36-.43,.64-.96,.83-1.58,.05-.17,.07-.34,.07-.5,.02-.19,.06-.38,.11-.58v-.32Zm19.66-12.06c.26,0,.49,.02,.68,.07,.22,.05,.38,.16,.5,.32,.14,.19,.22,.53,.22,1.01v2.12c.02,.34-.01,.6-.11,.79-.1,.17-.24,.28-.43,.32-.17,.05-.37,.07-.61,.07-.22,0-.46-.01-.72-.04-.24-.02-.47-.01-.68,.04-.17,.05-.34,.08-.5,.11-.17,0-.32,.02-.47,.07-.38,.12-.77,.3-1.15,.54-.38,.22-.68,.47-.9,.76-.12,.19-.25,.4-.4,.61-.12,.19-.24,.4-.36,.61-.07,.19-.14,.4-.22,.61-.05,.19-.1,.38-.14,.58-.05,.17-.07,.35-.07,.54,0,.17-.02,.34-.07,.5-.02,.1-.04,.19-.04,.29,.02,.07,.02,.14,0,.22v.58c-.05,.17-.06,.36-.04,.58,.02,.19,.04,.38,.04,.58v5.36c0,.31-.01,.6-.04,.86-.02,.26-.1,.48-.22,.65-.05,.07-.13,.13-.25,.18-.1,.02-.2,.05-.32,.07h-.18c-.12,.02-.25,.04-.4,.04h-1.94c-.14-.02-.3-.04-.47-.04h-.47c-.12-.05-.24-.08-.36-.11-.12-.05-.2-.13-.25-.25-.1-.12-.16-.29-.18-.5V17.43c0-.24,.05-.43,.14-.58,.12-.19,.3-.31,.54-.36s.53-.07,.86-.07h1.84c.29,0,.54,.02,.76,.07,.22,.02,.38,.13,.5,.32,.07,.12,.11,.29,.11,.5,.02,.22,.05,.43,.07,.65,.02,.19,.06,.37,.11,.54,.07,.17,.19,.25,.36,.25,.05-.05,.1-.07,.14-.07s.1-.02,.14-.07c.14-.12,.26-.25,.36-.4,.12-.17,.26-.31,.43-.43,.1-.07,.18-.14,.25-.22,.07-.1,.16-.18,.25-.25,.22-.14,.43-.29,.65-.43,.24-.14,.48-.28,.72-.4,.24-.1,.48-.18,.72-.25,.26-.07,.53-.14,.79-.22,.07-.02,.2-.02,.4,0,.22,0,.35-.02,.4-.07Zm4.85-6.62h2.63c.26,0,.5,.01,.72,.04s.38,.1,.5,.22c.19,.22,.28,.56,.25,1.04v9.61c0,.17-.01,.35-.04,.54-.02,.19-.01,.37,.04,.54v.32c.05,.12,.08,.25,.11,.4,.02,.12,.1,.2,.22,.25,.07,.05,.17,.06,.29,.04,.12-.05,.2-.1,.25-.14,.24-.17,.44-.36,.61-.58,.19-.22,.38-.42,.58-.61s.4-.38,.61-.58c.22-.22,.41-.44,.58-.68,.07-.05,.16-.12,.25-.22,.12-.12,.24-.24,.36-.36,.12-.14,.24-.28,.36-.4l.83-.83c.05-.1,.11-.17,.18-.22,.1-.07,.18-.16,.25-.25,.19-.24,.4-.44,.61-.61,.24-.19,.53-.32,.86-.4,.12-.02,.29-.04,.5-.04,.1-.02,.19-.02,.29,0h1.51c.19,0,.42-.01,.68-.04,.29-.02,.53-.01,.72,.04h.4c.12,.05,.24,.08,.36,.11,.12,0,.2,.05,.25,.14,.05,.07,.05,.17,0,.29-.02,.12-.06,.2-.11,.25-.14,.24-.32,.46-.54,.65-.22,.17-.42,.35-.61,.54-.17,.17-.34,.34-.5,.5-.14,.17-.31,.32-.5,.47-.12,.1-.23,.2-.32,.32-.07,.1-.17,.19-.29,.29-.12,.07-.23,.17-.32,.29-.1,.12-.2,.23-.32,.32l-1.37,1.37c-.17,.14-.32,.29-.47,.43-.12,.12-.24,.28-.36,.47-.05,.07-.1,.17-.14,.29-.05,.1-.05,.2,0,.32,.05,.26,.13,.48,.25,.65,.14,.17,.28,.35,.4,.54,.19,.26,.36,.53,.5,.79,.17,.26,.35,.53,.54,.79l3.78,5.72c.24,.34,.47,.67,.68,1.01,.24,.34,.46,.67,.65,1.01,.07,.12,.11,.26,.11,.43,.02,.17-.02,.3-.14,.4-.1,.05-.19,.07-.29,.07s-.2,.02-.32,.07c-.1,.02-.2,.04-.32,.04-.12-.02-.24-.04-.36-.04h-1.4c-.38,0-.84,.01-1.37,.04-.53,0-.92-.06-1.19-.18s-.49-.34-.68-.65c-.19-.34-.37-.64-.54-.9-.41-.65-.82-1.3-1.22-1.94-.41-.67-.82-1.33-1.22-1.98-.19-.31-.38-.62-.58-.94-.17-.31-.36-.61-.58-.9-.05-.07-.13-.17-.25-.29-.12-.12-.25-.16-.4-.11-.22,.05-.38,.12-.5,.22-.1,.1-.2,.2-.32,.32-.19,.14-.37,.31-.54,.5s-.3,.42-.4,.68c-.05,.19-.07,.41-.07,.65v3.46c.02,.19,.04,.4,.04,.61s-.01,.42-.04,.61c-.02,.17-.07,.3-.14,.4-.1,.14-.25,.25-.47,.32-.19,.05-.42,.08-.68,.11h-.83c-.29-.02-.54-.04-.76-.04-.26,0-.55,.01-.86,.04-.31,0-.56-.04-.76-.11-.31-.12-.48-.34-.5-.65s-.04-.67-.04-1.08V11.24c0-.26-.01-.54-.04-.83,0-.29,.05-.52,.14-.68,.1-.17,.26-.29,.5-.36h.14c.07-.02,.13-.04,.18-.04Z" />
</svg>