<?xml version="1.0" encoding="UTF-8"?>
<svg id="Layer_1" data-name="Layer 1" xmlns="http://www.w3.org/2000/svg" viewBox="0 0 24 24">
  <path d="M16.11,9.29c.55-.55,1.1-1.84-1.2-.28-3.27,2.25-6.49,4.37-6.49,4.37-.33,.15-.69,.23-1.05,.24-.36,0-.73-.06-1.06-.19-1.38-.41-2.99-.97-2.99-.97,0,0-1.1-.69,.78-1.43,0,0,7.96-3.27,10.72-4.42,1.06-.46,4.65-1.93,4.65-1.93,0,0,1.66-.64,1.52,.92-.05,.64-.41,2.9-.78,5.34-.55,3.45-1.15,7.23-1.15,7.23,0,0-.09,1.06-.87,1.24-.84-.01-1.65-.31-2.3-.83-.18-.14-3.45-2.21-4.65-3.22-.12-.08-.22-.19-.29-.33-.07-.13-.1-.28-.09-.42,0-.15,.05-.29,.12-.42,.07-.13,.18-.23,.31-.31,1.66-1.52,3.64-3.4,4.84-4.6Z"/>
</svg>