<?xml version="1.0" encoding="UTF-8"?>
<svg id="Layer_1" data-name="Layer 1" xmlns="http://www.w3.org/2000/svg" xmlns:xlink="http://www.w3.org/1999/xlink" viewBox="0 0 90 90">
  <defs>
    <style>
      .cls-1 {
        fill: url(#linear-gradient);
      }
    </style>
    <linearGradient id="linear-gradient" x1="45" y1="90" x2="45" y2="0" gradientTransform="translate(0 90) scale(1 -1)" gradientUnits="userSpaceOnUse">
      <stop offset="0" stop-color="#4f64d7"/>
      <stop offset="1" stop-color="#1c2d83"/>
    </linearGradient>
  </defs>
  <path class="cls-1" d="M40.11,2.74c3.04-1.7,6.75-1.7,9.78,0l3.37,1.89c1.46,.82,3.1,1.26,4.77,1.28l3.86,.05c3.48,.04,6.69,1.9,8.47,4.89l1.97,3.32c.85,1.44,2.05,2.64,3.49,3.49l3.32,1.97c3,1.78,4.85,4.99,4.89,8.47l.05,3.86c.02,1.67,.46,3.31,1.28,4.77l1.89,3.37c1.7,3.04,1.7,6.75,0,9.78l-1.89,3.37c-.82,1.46-1.26,3.1-1.28,4.77l-.05,3.86c-.04,3.48-1.9,6.69-4.89,8.47l-3.32,1.97c-1.44,.85-2.64,2.05-3.49,3.49l-1.97,3.32c-1.78,3-4.99,4.85-8.47,4.89l-3.86,.05c-1.67,.02-3.31,.46-4.77,1.28l-3.37,1.89c-3.04,1.7-6.75,1.7-9.78,0l-3.37-1.89c-1.46-.82-3.1-1.26-4.77-1.28l-3.86-.05c-3.48-.04-6.69-1.9-8.47-4.89l-1.97-3.32c-.85-1.44-2.05-2.64-3.49-3.49l-3.32-1.97c-3-1.78-4.85-4.99-4.89-8.47l-.05-3.86c-.02-1.67-.46-3.31-1.28-4.77l-1.89-3.37c-1.7-3.04-1.7-6.75,0-9.78l1.89-3.37c.82-1.46,1.26-3.1,1.28-4.77l.05-3.86c.04-3.48,1.9-6.69,4.89-8.47l3.32-1.97c1.44-.85,2.64-2.05,3.49-3.49l1.97-3.32c1.78-3,4.99-4.85,8.47-4.89l3.86-.05c1.67-.02,3.31-.46,4.77-1.28l3.37-1.89Z"/>
</svg>