<?xml version="1.0" encoding="UTF-8"?>
<svg id="Layer_1" data-name="Layer 1" xmlns="http://www.w3.org/2000/svg" viewBox="0 0 90 90">
  <defs>
    <style>
      .cls-1 {
        fill: rgba(255, 255, 255, .3);
        stroke: #afbfdd;
      }
    </style>
  </defs>
  <path class="cls-1" d="M40.35,3.18c2.89-1.62,6.41-1.62,9.3,0l3.37,1.89c1.53,.86,3.25,1.32,5.01,1.34l3.86,.05c3.31,.04,6.36,1.8,8.05,4.65l1.97,3.32c.9,1.51,2.16,2.77,3.67,3.67l3.32,1.97c2.85,1.69,4.61,4.74,4.65,8.05l.05,3.86c.02,1.75,.48,3.48,1.34,5.01l1.89,3.37c1.62,2.89,1.62,6.41,0,9.3l-1.89,3.37c-.86,1.53-1.32,3.25-1.34,5.01l-.05,3.86c-.04,3.31-1.8,6.36-4.65,8.05l-3.32,1.97c-1.51,.9-2.77,2.16-3.67,3.67l-1.97,3.32c-1.69,2.85-4.74,4.61-8.05,4.65l-3.86,.05c-1.75,.02-3.48,.48-5.01,1.34l-3.37,1.89c-2.89,1.62-6.41,1.62-9.3,0l-3.37-1.89c-1.53-.86-3.25-1.32-5.01-1.34l-3.86-.05c-3.31-.04-6.36-1.8-8.05-4.65l-1.97-3.32c-.9-1.51-2.16-2.77-3.67-3.67l-3.32-1.97c-2.85-1.69-4.61-4.74-4.65-8.05l-.05-3.86c-.02-1.75-.48-3.48-1.34-5.01l-1.89-3.37c-1.62-2.89-1.62-6.41,0-9.3l1.89-3.37c.86-1.53,1.32-3.25,1.34-5.01l.05-3.86c.04-3.31,1.8-6.36,4.65-8.05l3.32-1.97c1.51-.9,2.77-2.16,3.67-3.67l1.97-3.32c1.69-2.85,4.74-4.61,8.05-4.65l3.86-.05c1.75-.02,3.48-.48,5.01-1.34l3.37-1.89Z"/>
</svg>