<?xml version="1.0" encoding="UTF-8"?>
<svg id="Layer_1" data-name="Layer 1" xmlns="http://www.w3.org/2000/svg" viewBox="0 0 30 30">
  <defs>
    <style>
      .cls-1 {
        fill: #32936f;
      }

      .cls-2 {
        fill: rgba(50, 147, 111, .24);
      }
    </style>
  </defs>
  <path class="cls-2" d="M14.6,0h0c8.06,0,14.6,6.54,14.6,14.6h0c0,8.06-6.54,14.6-14.6,14.6h0C6.54,29.2,0,22.66,0,14.6H0C0,6.54,6.54,0,14.6,0Z"/>
  <path class="cls-1" d="M21.09,9.97c-.09-.09-.2-.16-.31-.21-.12-.05-.24-.07-.37-.07s-.25,.03-.37,.07c-.12,.05-.22,.12-.31,.21l-7.2,7.21-3.03-3.04c-.09-.09-.2-.16-.32-.21-.12-.05-.25-.07-.38-.07-.13,0-.26,.03-.38,.08-.12,.05-.23,.13-.32,.22-.09,.09-.16,.2-.21,.32-.05,.12-.07,.25-.07,.38,0,.13,.03,.26,.08,.38,.05,.12,.13,.23,.22,.32l3.71,3.71c.09,.09,.2,.16,.31,.21,.12,.05,.24,.07,.37,.07s.25-.03,.37-.07c.12-.05,.22-.12,.31-.21l7.89-7.89c.1-.09,.18-.2,.23-.32,.05-.12,.08-.25,.08-.39s-.03-.27-.08-.39c-.05-.12-.13-.23-.23-.32Z"/>
</svg>