<?xml version="1.0" encoding="UTF-8"?>
<svg id="Layer_1" data-name="Layer 1" xmlns="http://www.w3.org/2000/svg" xmlns:xlink="http://www.w3.org/1999/xlink" viewBox="0 0 1260 1430.88">
  <defs>
    <style>
      .cls-1, .cls-2 {
        fill: none;
      }

      .cls-3 {
        fill: url(#linear-gradient);
      }

      .cls-4 {
        clip-path: url(#clippath);
      }

      .cls-5 {
        opacity: .1;
      }

      .cls-6 {
        stroke-width: 1.31px;
      }

      .cls-6, .cls-7, .cls-8 {
        fill: #afbfdd;
      }

      .cls-6, .cls-8 {
        stroke: #afbfdd;
      }

      .cls-9 {
        fill: #fff;
      }

      .cls-8 {
        stroke-width: .21px;
      }

      .cls-10 {
        fill: url(#linear-gradient-8);
      }

      .cls-11 {
        fill: url(#linear-gradient-9);
      }

      .cls-12 {
        fill: url(#linear-gradient-3);
      }

      .cls-13 {
        fill: url(#linear-gradient-4);
      }

      .cls-14 {
        fill: url(#linear-gradient-2);
      }

      .cls-15 {
        fill: url(#linear-gradient-7);
      }

      .cls-16 {
        fill: url(#linear-gradient-10);
      }

      .cls-2 {
        stroke: #f0f0f0;
      }

      .cls-17 {
        fill: url(#linear-gradient-6);
      }

      .cls-17, .cls-18 {
        stroke: #0d1134;
        stroke-width: .2px;
      }

      .cls-18 {
        fill: url(#linear-gradient-5);
      }
    </style>
    <clipPath id="clippath">
      <rect class="cls-1" y="710.88" width="1260" height="720"/>
    </clipPath>
    <linearGradient id="linear-gradient" x1="278.41" y1="1195.83" x2="257.96" y2="1231.26" gradientTransform="translate(0 1306.24) scale(1 -1)" gradientUnits="userSpaceOnUse">
      <stop offset="0" stop-color="#4f64d7"/>
      <stop offset="1" stop-color="#1c2d83"/>
    </linearGradient>
    <linearGradient id="linear-gradient-2" x1="271.67" y1="1234.43" x2="252.01" y2="1239.18" gradientTransform="translate(0 1306.24) scale(1 -1)" gradientUnits="userSpaceOnUse">
      <stop offset="0" stop-color="#4f64d7"/>
      <stop offset="1" stop-color="#1c2d83"/>
    </linearGradient>
    <linearGradient id="linear-gradient-3" x1="247.28" y1="1204.7" x2="243.32" y2="1221.24" gradientTransform="translate(0 1306.24) scale(1 -1)" gradientUnits="userSpaceOnUse">
      <stop offset="0" stop-color="#4f64d7"/>
      <stop offset="1" stop-color="#1c2d83"/>
    </linearGradient>
    <linearGradient id="linear-gradient-4" x1="1190.04" y1="1484.02" x2="1202.62" y2="1454.05" gradientTransform="translate(1409.84 1543.52) rotate(-180)" gradientUnits="userSpaceOnUse">
      <stop offset="0" stop-color="#f5f5f5"/>
      <stop offset="1" stop-color="#ebebeb"/>
    </linearGradient>
    <linearGradient id="linear-gradient-5" x1="156.63" y1="1262.73" x2="156.63" y2="1231.54" gradientTransform="translate(0 1306.24) scale(1 -1)" gradientUnits="userSpaceOnUse">
      <stop offset="0" stop-color="#4f64d7"/>
      <stop offset="1" stop-color="#1c2d83"/>
    </linearGradient>
    <linearGradient id="linear-gradient-6" x1="185.61" y1="1218.2" x2="185.61" y2="1192.69" gradientTransform="translate(0 1306.24) scale(1 -1)" gradientUnits="userSpaceOnUse">
      <stop offset="0" stop-color="#4f64d7"/>
      <stop offset="1" stop-color="#1c2d83"/>
    </linearGradient>
    <linearGradient id="linear-gradient-7" x1="148.64" y1="1244.5" x2="144.21" y2="1235.07" gradientTransform="translate(0 1306.24) scale(1 -1)" gradientUnits="userSpaceOnUse">
      <stop offset="0" stop-color="#f5f5f5"/>
      <stop offset="1" stop-color="#ebebeb"/>
    </linearGradient>
    <linearGradient id="linear-gradient-8" x1="158.49" y1="1208.07" x2="157.09" y2="1203.66" gradientTransform="translate(0 1306.24) scale(1 -1)" gradientUnits="userSpaceOnUse">
      <stop offset="0" stop-color="#f5f5f5"/>
      <stop offset="1" stop-color="#ebebeb"/>
    </linearGradient>
    <linearGradient id="linear-gradient-9" x1="215.76" y1="1273.13" x2="229.12" y2="1251.52" gradientTransform="translate(0 1306.24) scale(1 -1)" gradientUnits="userSpaceOnUse">
      <stop offset="0" stop-color="#4f64d7"/>
      <stop offset="1" stop-color="#1c2d83"/>
    </linearGradient>
    <linearGradient id="linear-gradient-10" x1="226.84" y1="1246.47" x2="235.35" y2="1231.74" gradientTransform="translate(0 1306.24) scale(1 -1)" gradientUnits="userSpaceOnUse">
      <stop offset="0" stop-color="#4f64d7"/>
      <stop offset="1" stop-color="#1c2d83"/>
    </linearGradient>
  </defs>
  <g class="cls-4">
    <g>
      <path class="cls-9" d="M1142.83,1250.94l18.4,31.86,18.39,31.87,15.8,27.36c1.16,2-.29,4.5-2.6,4.5h-136.77c-2.31,0-3.75-2.5-2.6-4.5l15.8-27.36,17.99-31.17c.27-.46,.65-.84,1.1-1.1l54.49-31.46Z"/>
      <path class="cls-9" d="M956.14,1018.88c-1-3.72,2.41-7.12,6.12-6.13l29.33,7.86c3.72,1,4.97,5.65,2.25,8.37l-21.48,21.47c-2.72,2.73-7.37,1.48-8.37-2.24l-7.86-29.33Z"/>
      <path class="cls-6" d="M1166.23,882.14c42.79,44.61,66.75,104.08,66.75,166.02s-25.27,124.6-70.24,169.58c-44.98,44.97-105.97,70.24-169.58,70.24s-121.41-23.96-166.01-66.75c-1.72-1.65-1.73-4.4-.03-6.1l166.51-166.51,166.5-166.5c1.7-1.7,4.45-1.7,6.1,.02Z"/>
      <path class="cls-9" d="M1229.59,1261.04l2.97,5.14,2.97,5.14,2.1,3.64c.39,.67-.1,1.5-.87,1.5h-20.28c-.77,0-1.25-.83-.86-1.5l2.1-3.64,2.83-4.91c.09-.15,.22-.28,.37-.36l8.67-5.01Z"/>
      <path class="cls-9" d="M1199.55,1223.91c-.2-.74,.48-1.42,1.23-1.22l4.08,1.1c.75,.19,1,1.12,.45,1.67l-2.99,2.99c-.55,.54-1.47,.3-1.67-.45l-1.1-4.09Z"/>
      <path class="cls-8" d="M1233.54,1201.71c6.8,7.18,10.6,16.7,10.6,26.61s-4.08,20.1-11.34,27.36c-7.25,7.26-17.1,11.34-27.36,11.34s-19.43-3.81-26.61-10.6c-.38-.36-.38-.97-.01-1.34l26.69-26.69,26.69-26.69c.38-.37,.98-.37,1.34,.01Z"/>
      <g class="cls-5">
        <path class="cls-9" d="M886.49,962.95l61.38,43.6-39.99-41.05,31.81-12.67-54.17-47.6,32.26,43.12-31.29,14.6Z"/>
        <path class="cls-9" d="M906.32,1035.58l36.54-7.13-28.34,.33,6.3-15.71-35.52,3.18,26.45,3.14-5.44,16.19Z"/>
        <path class="cls-9" d="M986.08,971.75l-20.59,23.57,12.19-20.47-14.09-2.04,17.28-24.49-8.86,20.56,14.06,2.87Z"/>
      </g>
    </g>
  </g>
  <path class="cls-2" d="M1139.54,1237.56c-85.66,67.52-214.83,63.37-354.54,1.84-139.69-61.53-289.79-180.36-417.16-341.95-127.37-161.58-207.88-335.29-235.08-485.48-27.21-150.22-1.08-276.78,84.58-344.31s214.83-63.37,354.54-1.84c139.69,61.52,289.79,180.36,417.16,341.95,127.37,161.59,207.87,335.29,235.08,485.48,27.2,150.22,1.08,276.78-84.58,344.31Z"/>
  <path class="cls-3" d="M276.76,88.16l-25.33-9.41,17.67,10.52-9.85,7.34,23.2,11.47-15.19-11.95,9.49-7.97Z"/>
  <path class="cls-14" d="M263.14,64.82l-12.01,5.86,9.79-2.75-.73,6.03,12.02-4.4-9.46,1.37,.38-6.12Z"/>
  <path class="cls-12" d="M241.42,94.36l4.95-10.08-2.32,8.23,5.07-.6-3.72,10.1,1.16-7.95-5.14,.31Z"/>
  <circle class="cls-13" cx="219.84" cy="59.4" r="14.61"/>
  <path class="cls-7" d="M195.81,55.67c2.75-.39,7.42,.36,9.42,.79-2.94,11.18,6.77,15.2,6.38,15.5-.31,.24-1.05,.29-1.37,.29-.23,.88-1.53,3.43-4.9,6.57-3.37,3.14-10.56,6.15-13.73,7.26l-20.89,7.65c-3.82,1.18-6.57,4.9-7.16,5.79-.59,.88-1.08,.88-1.57,.79-.39-.08-1.34-1.14-1.76-1.67-8.47-12.79-10.59-25.01-10.59-29.52,.43-.29,1.32-.92,1.47-1.08,.16-.16,.33-.06,.39,0,.1,.16,.35,.55,.59,.79,.24,.24,.75,.16,.98,.1,5.62-1.6,17.5-5.02,20.01-5.89,3.14-1.08,3.63-4.22,4.02-4.41,.39-.2,2.94,2.35,2.94,1.57s.59-1.27,1.08-1.37c.49-.1,1.27,.1,1.86,.1,.47,0,.2-.85,0-1.27l.29,.1c.98,.39,9.12-1.57,12.56-2.06Z"/>
  <path class="cls-18" d="M156.09,43.51l17.17,24.82-15.99,6.38-17.26-25.01,16.09-6.18Z"/>
  <path class="cls-17" d="M200.23,107.27l-13.05-19.23-16.18,5.89,.88,1.47,12.75,18.15,15.6-6.28Z"/>
  <path class="cls-15" d="M143.63,65.19l5.69,4.81,.2,1.67-6.18-5.89-1.08,1.18c-1.08,1.28-1.47,.49-1.18-.78,.29-1.28,2.85-4.41,3.34-4.02,.39,.31-.36,2.16-.78,3.04Z"/>
  <path class="cls-10" d="M155.26,102.17l4.41-3.26c.13-.1,.32-.08,.43,.06,.11,.14,.08,.34-.06,.45l-4.45,3.2c-.11,.08-.26,.07-.36-.03-.12-.12-.1-.32,.03-.42Z"/>
  <path class="cls-11" d="M223.82,33.84c.05-.71-.97-.88-1.15-.2l-3.08,11.35c-.02,.08-.03,.17-.01,.26l1.67,9.18c.12,.68,1.12,.63,1.17-.07l1.41-20.53Z"/>
  <path class="cls-16" d="M226.27,65.71c-.65-.29-.32-1.27,.38-1.11l5.71,1.33c.09,.02,.17,.06,.23,.11l3.63,2.9c.54,.43,.02,1.28-.61,1l-9.33-4.23Z"/>
</svg>