<svg width="240" height="240" viewBox="0 0 240 240" fill="none" xmlns="http://www.w3.org/2000/svg">
<g opacity="0.5" clip-path="url(#clip0_1206_3640)">
<path d="M143.881 97.8841V99.8722H160.136C160.808 99.7086 161.509 99.7276 162.173 99.9274C162.836 100.127 163.44 100.501 163.928 101.014C164.415 101.527 164.77 102.162 164.959 102.859C165.148 103.556 165.164 104.292 165.007 104.998V122.018C165.164 122.723 165.148 123.46 164.959 124.157C164.77 124.854 164.415 125.488 163.928 126.001C163.44 126.514 162.836 126.888 162.173 127.088C161.509 127.288 160.808 127.307 160.136 127.144H152.277C150.92 127.144 149.157 127.143 148.49 125.581C147.822 124.018 148.752 122.593 149.584 121.455L160.147 106.664H143.881L137.434 115.743C136.34 117.272 135.398 118.593 135.398 120.34C135.398 122.087 136.285 123.271 137.434 124.937L139.065 127.235C140.685 129.534 142.349 131.832 144.473 132.924C146.596 134.016 149.212 134.073 152.737 134.073H159.775C163.847 134.073 169.933 134.073 174.004 129.81C178.076 125.546 178.076 119.283 178.076 117.007V110.181C178.076 107.882 178.076 101.654 174.004 97.3899C169.933 93.1262 163.858 93.1262 159.775 93.1262H148.49C147.859 93.0006 147.21 93.0384 146.597 93.2363C145.983 93.4342 145.426 93.7862 144.971 94.2619C144.517 94.7375 144.181 95.3224 143.991 95.9656C143.801 96.6089 143.763 97.2911 143.881 97.953" fill="#C0C0C0"/>
<path d="M124.377 106.652H140.632L121.126 133.947H104.883L124.377 106.652Z" fill="#C0C0C0"/>
<path d="M60.9993 111.479C60.879 110.817 60.915 110.133 61.104 109.488C61.2931 108.843 61.6295 108.257 62.0838 107.78C62.5382 107.303 63.0968 106.95 63.711 106.751C64.3252 106.553 64.9762 106.515 65.6075 106.641H92.8298C96.3434 106.641 98.9156 106.641 101.083 107.79C103.25 108.94 104.881 111.238 106.501 113.479L108.132 115.778C109.227 117.398 110.157 118.628 110.157 120.374C110.157 122.121 109.216 123.397 108.132 124.971L101.63 134.073H85.3756L95.9384 119.283C96.7484 118.133 97.7006 116.72 97.033 115.157C96.3653 113.594 94.592 113.594 93.2457 113.594H80.5157V147.715H67.5011V113.468H60.9993V111.479" fill="#C0C0C0"/>
</g>
<defs>
<clipPath id="clip0_1206_3640">
<rect width="117" height="54.6" fill="white" transform="translate(61 93)"/>
</clipPath>
</defs>
</svg>
