<svg width="240" height="240" viewBox="0 0 240 240" fill="none" xmlns="http://www.w3.org/2000/svg">
<g opacity="0.5" clip-path="url(#clip0_1206_3640)">
<path d="M83.1734 113.61C82.0875 113.445 80.9911 113.357 79.8924 113.346C79.8575 113.346 79.824 113.359 79.7993 113.384C79.7746 113.408 79.7607 113.441 79.7607 113.475V117.032C79.7607 117.05 79.7644 117.068 79.7717 117.084C79.7791 117.101 79.7898 117.116 79.8033 117.128C79.8167 117.14 79.8326 117.149 79.85 117.155C79.8673 117.161 79.8857 117.163 79.9039 117.161C81.4327 117.01 82.7268 115.65 83.2822 113.79C83.2873 113.772 83.2887 113.754 83.2861 113.736C83.2836 113.718 83.2773 113.701 83.2676 113.686C83.2579 113.67 83.245 113.657 83.2298 113.647C83.2145 113.637 83.1973 113.63 83.1792 113.627" fill="#C0C0C0"/>
<path d="M83.1794 104.676C83.4249 104.734 83.644 104.87 83.8025 105.063C83.9609 105.257 84.0499 105.496 84.0554 105.744C84.0554 105.744 84.0554 105.744 84.0554 105.777V106.75L83.8436 106.693V106.266V105.822C83.8393 105.595 83.7761 105.372 83.6599 105.176C83.5436 104.979 83.3783 104.815 83.1794 104.698V104.676ZM82.8931 104.468H81.9998V103.67H86.2428V104.445H85.4182C85.1436 104.447 84.8758 104.53 84.65 104.683C84.4242 104.837 84.2509 105.053 84.1528 105.305C84.0514 105.059 83.8774 104.847 83.6531 104.698C83.4287 104.549 83.1641 104.469 82.8931 104.468V104.468ZM84.4162 105.845V106.879L84.2558 106.828V105.704C84.27 105.479 84.3529 105.263 84.4938 105.085C84.6348 104.906 84.8272 104.773 85.046 104.704C84.8556 104.826 84.6993 104.992 84.5913 105.189C84.4833 105.385 84.427 105.605 84.4276 105.828L84.4162 105.845ZM81.3127 106.474C82.4923 107.265 83.3134 108.473 83.6031 109.846C83.6098 109.871 83.6258 109.893 83.648 109.908C83.6701 109.922 83.6969 109.928 83.7233 109.925C85.1022 109.7 86.4371 109.266 87.68 108.638C87.6942 108.628 87.7057 108.615 87.7137 108.6C87.7217 108.585 87.7259 108.568 87.7259 108.551C87.7259 108.534 87.7217 108.517 87.7137 108.502C87.7057 108.486 87.6942 108.473 87.68 108.464C87.3504 108.223 87.0041 108.005 86.6436 107.812C86.0895 107.491 85.5092 107.217 84.9086 106.991V105.822C84.9086 105.594 85.0009 105.376 85.1652 105.214C85.3295 105.053 85.5523 104.962 85.7847 104.962H86.489C86.5543 104.962 86.6169 104.937 86.6631 104.892C86.7093 104.846 86.7352 104.785 86.7352 104.721V103.428C86.7337 103.365 86.7071 103.305 86.6611 103.261C86.6151 103.217 86.5533 103.192 86.489 103.192H81.7536C81.6893 103.192 81.6275 103.217 81.5815 103.261C81.5355 103.305 81.5089 103.365 81.5074 103.428V104.743C81.5074 104.807 81.5333 104.869 81.5795 104.914C81.6256 104.959 81.6883 104.985 81.7536 104.985H82.4808C82.7042 104.992 82.9165 105.083 83.074 105.238C83.2316 105.394 83.3225 105.603 83.3282 105.822V106.188V106.581C82.6712 106.438 82.0057 106.334 81.3356 106.272C81.3109 106.267 81.2853 106.271 81.2636 106.284C81.2419 106.297 81.2256 106.316 81.2179 106.34C81.2101 106.364 81.2114 106.389 81.2215 106.412C81.2316 106.434 81.2498 106.453 81.2726 106.463" fill="#C0C0C0"/>
<path d="M79.8479 110.245C81.0143 110.234 82.1781 110.137 83.3293 109.952C82.8083 107.873 81.3997 106.361 79.7334 106.277V110.149C79.7334 110.173 79.7431 110.196 79.7602 110.213C79.7774 110.229 79.8007 110.239 79.825 110.239" fill="#C0C0C0"/>
<path d="M79.75 119.448H79.6183C78.2541 119.44 76.9478 118.905 75.9831 117.959C75.0185 117.012 74.4732 115.73 74.4657 114.391V106.271V105.828C74.4661 105.584 74.3987 105.344 74.2705 105.135C74.1423 104.926 73.9584 104.756 73.7386 104.642H74.271C74.6762 104.643 75.0649 104.799 75.3545 105.078C75.6442 105.356 75.8121 105.733 75.8225 106.131C75.8225 106.131 75.8225 106.131 75.8225 106.165V106.845V115.104C75.824 116.19 76.2644 117.23 77.047 117.997C77.8295 118.764 78.8903 119.195 79.9962 119.195H80.0763C80.8881 119.198 81.683 118.968 82.3627 118.533C83.0425 118.097 83.5772 117.476 83.9008 116.745L84.0439 116.706C83.6787 117.521 83.0799 118.214 82.3206 118.7C81.5613 119.187 80.6742 119.447 79.7672 119.448H79.75ZM72.6279 104.445V103.67H79.2061V104.445H77.5458C77.1868 104.444 76.836 104.551 76.5411 104.752C76.2462 104.953 76.0213 105.238 75.897 105.569C75.7726 105.238 75.5477 104.953 75.2528 104.752C74.9579 104.551 74.6072 104.444 74.2481 104.445H72.6279ZM77.3798 105.822V106.165V115.47C77.3813 116.289 77.7135 117.074 78.3037 117.653C78.8939 118.232 79.694 118.559 80.5286 118.56H80.6947C81.2764 118.562 81.8474 118.406 82.3438 118.108C82.8402 117.811 83.2425 117.383 83.5057 116.874V116.841L83.626 116.813C83.3037 117.477 82.7957 118.038 82.1612 118.43C81.5267 118.822 80.7917 119.029 80.042 119.026H79.9618C78.9098 119.019 77.903 118.606 77.1585 117.876C76.4141 117.147 75.9918 116.159 75.9828 115.127V106.17C75.9828 106.17 75.9828 106.17 75.9828 106.137C75.9933 105.739 76.1611 105.361 76.4508 105.083C76.7405 104.805 77.1292 104.649 77.5344 104.648H78.1069C77.887 104.761 77.7031 104.932 77.5749 105.141C77.4468 105.35 77.3793 105.589 77.3798 105.833V105.822ZM87.6164 114.953C86.3762 114.339 85.048 113.915 83.6775 113.694C83.6578 113.691 83.6375 113.694 83.6206 113.705C83.6036 113.715 83.5913 113.731 83.5859 113.75C83.2654 115.11 82.4117 116.291 81.2099 117.037C81.1894 117.043 81.1722 117.057 81.162 117.075C81.1518 117.094 81.1495 117.116 81.1555 117.136C81.1616 117.156 81.1756 117.173 81.1944 117.183C81.2132 117.193 81.2352 117.195 81.2557 117.189C81.8283 117.138 82.355 117.065 82.8817 116.964C82.6383 117.311 82.3125 117.595 81.9325 117.791C81.5525 117.986 81.1296 118.088 80.7004 118.088H80.5344C80.0829 118.087 79.639 117.974 79.2444 117.759C78.8498 117.544 78.5175 117.234 78.2786 116.858C78.6041 117.02 78.9573 117.123 79.3206 117.161C79.3384 117.162 79.3561 117.159 79.3728 117.153C79.3894 117.147 79.4046 117.137 79.4175 117.125C79.4303 117.113 79.4405 117.099 79.4475 117.082C79.4545 117.066 79.458 117.049 79.458 117.032V113.475C79.458 113.441 79.4441 113.408 79.4195 113.384C79.3948 113.359 79.3613 113.346 79.3263 113.346C78.8283 113.346 78.3416 113.346 77.8607 113.407V113.127C78.3416 113.093 78.834 113.07 79.3321 113.065C79.367 113.065 79.4005 113.051 79.4252 113.027C79.4499 113.003 79.4637 112.97 79.4637 112.935V110.649C79.4623 110.615 79.4478 110.584 79.4232 110.561C79.3987 110.538 79.366 110.525 79.3321 110.525C78.8359 110.525 78.3454 110.504 77.8607 110.463V110.182C78.3531 110.216 78.8512 110.238 79.355 110.244C79.369 110.245 79.383 110.243 79.3962 110.238C79.4093 110.233 79.4214 110.226 79.4316 110.216C79.4418 110.207 79.4499 110.196 79.4554 110.183C79.4609 110.17 79.4638 110.157 79.4637 110.143V106.277C78.8882 106.314 78.3348 106.509 77.8664 106.839V105.822C77.8664 105.709 77.8893 105.596 77.9336 105.492C77.978 105.387 78.0431 105.292 78.125 105.212C78.2069 105.132 78.3042 105.069 78.4111 105.026C78.5181 104.983 78.6326 104.961 78.7481 104.962H79.4466C79.4791 104.963 79.5115 104.957 79.5417 104.945C79.5719 104.933 79.5994 104.916 79.6224 104.893C79.6454 104.871 79.6635 104.844 79.6756 104.814C79.6877 104.784 79.6935 104.753 79.6928 104.721V103.428C79.6913 103.365 79.6647 103.305 79.6187 103.261C79.5726 103.217 79.5109 103.192 79.4466 103.192H72.3874C72.3231 103.192 72.2613 103.217 72.2153 103.261C72.1693 103.305 72.1427 103.365 72.1412 103.428V104.743C72.1412 104.807 72.1672 104.869 72.2133 104.914C72.2595 104.959 72.3221 104.985 72.3874 104.985H73.0802C73.3125 104.985 73.5353 105.075 73.6996 105.236C73.8638 105.398 73.9561 105.616 73.9561 105.844V106.187V107.159C73.4762 107.337 73.0094 107.547 72.5592 107.789C72.2088 107.977 71.8721 108.189 71.5515 108.423C71.5338 108.435 71.5193 108.451 71.5093 108.47C71.4993 108.488 71.4941 108.509 71.4941 108.53C71.4941 108.551 71.4993 108.572 71.5093 108.591C71.5193 108.609 71.5338 108.625 71.5515 108.637C72.3105 109.028 73.1111 109.335 73.9389 109.553V109.8C72.9632 109.548 72.0256 109.17 71.1508 108.676V108.676C70.6738 109.033 70.2825 109.488 70.0045 110.009C69.7265 110.531 69.5686 111.106 69.542 111.694C69.5695 112.288 69.7305 112.87 70.0135 113.396C70.2966 113.923 70.6947 114.381 71.1794 114.739C71.2013 114.754 71.2273 114.762 71.2538 114.762C71.2804 114.762 71.3063 114.754 71.3283 114.739C72.1562 114.301 73.0345 113.961 73.9447 113.728V114.014C73.1529 114.222 72.3854 114.51 71.6546 114.874C71.6357 114.886 71.6201 114.902 71.6092 114.921C71.5984 114.94 71.5927 114.962 71.5927 114.984C71.5927 115.005 71.5984 115.027 71.6092 115.046C71.6201 115.065 71.6357 115.082 71.6546 115.093C71.9386 115.298 72.2349 115.485 72.542 115.655C73.0929 115.948 73.6673 116.196 74.2595 116.397C74.2873 116.407 74.3177 116.407 74.3454 116.397C74.7641 117.434 75.4907 118.324 76.4309 118.951C77.371 119.578 78.4815 119.914 79.6183 119.914H79.75C80.816 119.915 81.856 119.591 82.7265 118.987C83.5971 118.383 84.2554 117.529 84.6107 116.543V116.543C85.3219 116.323 86.0101 116.037 86.666 115.689C86.9954 115.51 87.3128 115.311 87.6164 115.093C87.6283 115.086 87.6381 115.076 87.6449 115.064C87.6517 115.053 87.6553 115.039 87.6553 115.026C87.6553 115.012 87.6517 114.999 87.6449 114.987C87.6381 114.975 87.6283 114.965 87.6164 114.958" fill="#C0C0C0"/>
<path d="M88.1679 108.795C88.1369 108.773 88.0999 108.761 88.0619 108.761C88.024 108.761 87.987 108.773 87.956 108.795C86.6868 109.453 85.318 109.906 83.902 110.138C83.8552 110.147 83.8141 110.174 83.7874 110.213C83.7606 110.252 83.7504 110.3 83.7589 110.346C83.941 111.298 83.941 112.276 83.7589 113.229C83.7538 113.252 83.7536 113.276 83.7581 113.299C83.7626 113.323 83.7717 113.345 83.785 113.365C83.7984 113.385 83.8155 113.402 83.8356 113.415C83.8557 113.428 83.8783 113.437 83.902 113.442C85.2998 113.676 86.6521 114.121 87.9102 114.763C87.9406 114.783 87.9765 114.794 88.0133 114.794C88.05 114.794 88.0859 114.783 88.1163 114.763C88.5938 114.405 88.9854 113.949 89.2634 113.427C89.5415 112.904 89.6992 112.328 89.7253 111.739C89.7023 111.173 89.556 110.618 89.2962 110.112C89.0365 109.606 88.6693 109.161 88.2194 108.806" fill="#C0C0C0"/>
<path d="M79.8933 113.07C81.0267 113.081 82.1577 113.173 83.2774 113.346C83.3107 113.351 83.3447 113.343 83.3724 113.324C83.4 113.306 83.4193 113.277 83.4263 113.245C83.6173 112.285 83.6173 111.299 83.4263 110.339C83.4235 110.323 83.4175 110.307 83.4084 110.293C83.3994 110.279 83.3876 110.267 83.3737 110.258C83.3598 110.248 83.3441 110.242 83.3276 110.238C83.311 110.235 83.294 110.235 83.2774 110.238C82.1409 110.415 80.9925 110.509 79.8418 110.519C79.8088 110.52 79.7776 110.534 79.7543 110.557C79.7309 110.58 79.7172 110.61 79.7158 110.643V112.941C79.7158 112.974 79.7291 113.005 79.7527 113.029C79.7763 113.052 79.8084 113.065 79.8418 113.065" fill="#C0C0C0"/>
<path d="M119.959 109.379L120.852 109.171L120.812 108.609H117.8L117.766 109.143L118.556 109.39V111.228H115.968V109.379L116.827 109.171L116.792 108.609H113.763L113.723 109.137L114.559 109.39V114.083L113.706 114.347L113.746 114.864H116.792L116.827 114.28L115.968 114.072V111.964H118.556V114.083L117.726 114.336L117.783 114.864H120.823L120.852 114.28L119.959 114.072V109.379Z" fill="#C0C0C0"/>
<path d="M97.0353 111.615V109.491H97.1842C98.5069 109.373 98.902 109.935 98.902 110.536C98.902 111.138 98.5069 111.863 97.0582 111.621L97.0353 111.615ZM97.8713 108.614C96.9366 108.73 95.9897 108.713 95.0599 108.564L94.9053 109.126C95.1504 109.23 95.4055 109.309 95.6668 109.362V114.077L94.7793 114.296V114.858C94.7793 114.858 95.7642 114.813 96.3139 114.813C96.8636 114.813 97.8771 114.858 97.8771 114.858V114.296L96.9666 114.082V112.397C97.5219 112.51 98.0948 112.51 98.6501 112.397C98.9188 112.351 99.1751 112.252 99.4029 112.105C99.6307 111.958 99.8252 111.766 99.974 111.542C100.123 111.318 100.223 111.066 100.268 110.802C100.313 110.538 100.302 110.268 100.236 110.008C99.9957 108.457 98.2607 108.586 97.774 108.586" fill="#C0C0C0"/>
<path d="M106.687 108.677C106.688 108.671 106.687 108.665 106.686 108.66C106.684 108.654 106.681 108.649 106.677 108.645C106.674 108.641 106.669 108.637 106.664 108.635C106.658 108.633 106.653 108.632 106.647 108.632C105.846 108.686 105.043 108.686 104.242 108.632L104.202 109.194L104.969 109.413C104.969 109.413 104.368 111.059 103.938 112.15V111.942C103.938 111.942 103.309 110.464 103.045 109.772C102.87 109.419 102.758 109.039 102.713 108.649C102.026 108.718 101.333 108.718 100.646 108.649L100.583 109.211L101.299 109.458L102.891 113.032H103.629C103.629 113.032 103.286 114.156 102.719 114.251L101.7 113.622C101.53 113.681 101.383 113.791 101.28 113.936C101.178 114.081 101.124 114.254 101.127 114.431C101.127 115.055 102.587 115.555 103.417 114.639C104.248 113.723 105.324 110.705 105.622 110.143C105.832 109.737 106.192 109.425 106.63 109.272L106.687 108.677Z" fill="#C0C0C0"/>
<path d="M108.518 113.936H107.986C108.411 113.266 108.688 112.515 108.799 111.733C108.916 110.99 108.957 110.237 108.919 109.485H110.671V114.07C110.224 114.07 109.715 114.07 108.518 113.997V113.936ZM112.904 114.121C112.778 114.121 112.44 114.059 112.068 114.037V109.367L112.921 109.171V108.575C112.921 108.575 112.108 108.648 110.631 108.626C109.32 108.626 107.7 108.626 107.35 108.626C107.332 108.626 107.315 108.633 107.302 108.645C107.289 108.658 107.282 108.675 107.282 108.693L107.253 109.12C107.253 109.133 107.257 109.146 107.266 109.156C107.274 109.167 107.286 109.174 107.299 109.176C107.609 109.236 107.896 109.378 108.129 109.587C108.158 110.387 108.095 111.188 107.94 111.975C107.774 112.722 107.402 113.41 106.864 113.964C106.614 113.98 106.366 114.008 106.119 114.048C106.113 114.049 106.106 114.051 106.1 114.054C106.094 114.057 106.089 114.061 106.085 114.067C106.08 114.072 106.077 114.078 106.075 114.084C106.073 114.091 106.073 114.098 106.074 114.104L106.188 116.532H106.801L107.224 114.846H111.724L112.005 116.532H112.743L112.938 114.121C112.938 114.108 112.934 114.095 112.926 114.085C112.917 114.075 112.905 114.068 112.892 114.065" fill="#C0C0C0"/>
<path d="M111.954 125.123C112.28 123.895 112.423 122.627 112.378 121.358H112.229C112.126 121.364 112.023 121.364 111.92 121.358C111.827 123.403 111.238 125.397 110.203 127.174C108.9 125.564 107.063 124.456 105.012 124.042C102.96 123.629 100.826 123.937 98.9834 124.912C97.1403 125.888 95.7056 127.469 94.9307 129.378C94.1557 131.287 94.0898 133.403 94.7445 135.355C89.2202 135.596 83.7188 134.516 78.714 132.208C67.5842 127.123 58.7102 116.054 64.2235 106.917C69.9487 97.3652 85.2751 96.5898 97.6128 102.714L97.8647 102.36C93.6015 100.116 88.9353 98.7037 84.1243 98.2025C74.0995 97.1517 66.2044 100.304 62.7178 106.277C59.7579 111.373 60.777 117.357 64.5785 122.724C67.6987 127.123 72.4106 130.674 77.6949 133.051C82.1905 135.09 87.058 136.221 92.0079 136.378C93.0372 136.402 94.0671 136.376 95.0938 136.299C95.6136 137.371 96.3501 138.328 97.2587 139.112C98.1673 139.896 99.2288 140.49 100.379 140.859C101.529 141.228 102.743 141.363 103.948 141.257C105.153 141.15 106.323 140.804 107.388 140.24C108.452 139.676 109.388 138.905 110.14 137.974C110.891 137.043 111.441 135.973 111.758 134.827C112.074 133.681 112.15 132.483 111.98 131.308C111.81 130.132 111.398 129.003 110.769 127.988C111.284 127.085 111.682 126.122 111.954 125.123V125.123Z" fill="#C0C0C0"/>
<path d="M117.163 129.017L117.696 129.051C117.94 129.051 118.262 129.051 118.663 129.051H119.11H119.774H120.421H120.844L120.787 129.27L120.386 129.32L119.774 129.433C119.939 129.718 120.079 130.017 120.192 130.326L120.684 131.585C120.856 132.031 121.033 132.461 121.217 132.877C121.361 133.227 121.543 133.56 121.76 133.872C121.91 133.669 122.042 133.455 122.155 133.231C122.285 132.98 122.411 132.71 122.533 132.422C122.655 132.134 122.77 131.838 122.877 131.534L123.186 130.674C123.285 130.405 123.375 130.161 123.455 129.944C123.535 129.727 123.608 129.556 123.673 129.433L123.478 129.399L123.129 129.354L122.779 129.309L122.585 129.275L122.539 129.034H122.842L123.272 129.062H123.696H123.982H124.251H124.652H125.047H125.299V129.281C125.181 129.309 125.066 129.347 124.955 129.393C124.831 129.439 124.698 129.46 124.566 129.455C124.528 129.455 124.426 129.614 124.262 129.933C124.098 130.251 123.907 130.656 123.69 131.146C123.465 131.637 123.224 132.179 122.968 132.77C122.713 133.362 122.463 133.924 122.218 134.456L121.554 135.934C121.356 136.372 121.211 136.679 121.119 136.855L121.463 136.906L122.087 137.001L122.133 137.254C121.953 137.254 121.705 137.236 121.388 137.198C121.071 137.161 120.69 137.146 120.243 137.153H119.991H119.659L119.327 137.181H119.098L119.178 136.928H119.396L119.717 136.895L120.037 136.85C120.109 136.843 120.178 136.824 120.243 136.794C120.447 136.652 120.605 136.457 120.701 136.232C120.931 135.791 121.132 135.337 121.302 134.872C121.246 134.793 121.198 134.708 121.159 134.619C121.091 134.473 121.005 134.287 120.907 134.057L120.541 133.338C120.419 133.068 120.291 132.8 120.157 132.534C120.024 132.268 119.89 132.016 119.757 131.776C119.644 131.571 119.518 131.374 119.379 131.186C119.024 130.714 118.72 130.317 118.468 129.995C118.316 129.788 118.149 129.59 117.97 129.405L117.827 129.371L117.621 129.326L117.398 129.287L117.215 129.247L117.163 129.017Z" fill="#C0C0C0"/>
<path d="M125.775 128.995L127.784 129.062L129.794 128.995L129.725 129.236C129.554 129.236 129.363 129.261 129.153 129.309L128.58 129.422C128.534 130.171 128.512 131.24 128.512 132.63H133.344V129.41L133.097 129.377L132.731 129.326L132.382 129.276H132.199L132.118 129.023C132.329 129.056 132.541 129.073 132.754 129.073L134.054 129.113H134.443H135.09H135.725H136.103L136.034 129.332L135.571 129.399L134.844 129.506C134.844 129.854 134.826 130.336 134.792 130.95C134.758 131.564 134.741 132.34 134.741 133.276C134.741 133.939 134.75 134.582 134.769 135.204C134.788 135.825 134.819 136.387 134.861 136.889C135.063 136.934 135.267 136.968 135.473 136.99L136.046 137.063L136.115 137.294H135.708H135.067H134.42H133.596H133.023H132.45H132.078L132.147 137.063C132.727 136.992 133.109 136.934 133.292 136.889C133.292 136.736 133.305 136.348 133.332 135.726C133.359 135.104 133.359 134.241 133.332 133.136C133.141 133.136 132.825 133.145 132.382 133.164L130.664 133.248C129.241 133.334 128.496 133.385 128.431 133.4C128.431 133.524 128.431 133.679 128.431 133.866V135.086C128.431 135.28 128.431 135.468 128.431 135.647C128.431 135.827 128.443 136.015 128.466 136.209C128.466 136.4 128.485 136.606 128.523 136.827C128.586 136.827 128.712 136.861 128.907 136.884L129.679 136.979L129.725 137.232C129.475 137.194 129.222 137.177 128.97 137.181L127.681 137.153H127.292H126.685H126.078H125.712L125.781 136.923C126.198 136.886 126.612 136.828 127.023 136.749C127.023 136.355 127.023 135.874 127.023 135.305C127.023 134.735 127.023 134.076 127.023 133.327C127.023 132.432 127.023 131.654 127.023 130.995C127.023 130.336 127.023 129.791 127.023 129.36C126.872 129.312 126.717 129.278 126.559 129.259C126.357 129.233 126.107 129.212 125.809 129.197L125.775 128.995Z" fill="#C0C0C0"/>
<path d="M136.573 128.995L138.583 129.062L140.592 128.995L140.524 129.236C140.352 129.236 140.161 129.261 139.951 129.309L139.379 129.422C139.379 129.551 139.379 129.753 139.379 130.017C139.379 130.281 139.379 130.579 139.379 130.939C139.379 131.298 139.379 131.658 139.379 132.063C139.379 132.467 139.379 132.844 139.379 133.226C139.379 133.608 139.379 133.967 139.379 134.31V135.147L144.211 129.815V129.422L143.964 129.388L143.598 129.337L143.249 129.287H143.066L142.985 129.034C143.196 129.067 143.408 129.084 143.621 129.085L144.921 129.124H145.31H145.957H146.592H146.97L146.901 129.343L146.438 129.41L145.711 129.517C145.711 129.866 145.693 130.347 145.659 130.961C145.625 131.576 145.608 132.351 145.608 133.288C145.608 133.951 145.617 134.593 145.636 135.215C145.655 135.837 145.686 136.399 145.728 136.901C145.93 136.945 146.135 136.979 146.34 137.002L146.913 137.075L146.982 137.305H146.575H145.934H145.287H144.48H143.907H143.335H142.963L143.031 137.075C143.611 137.004 143.993 136.945 144.176 136.901C144.176 136.848 144.176 136.7 144.176 136.457C144.176 136.213 144.176 135.908 144.176 135.541C144.176 135.166 144.176 134.756 144.176 134.31C144.176 133.864 144.176 133.404 144.176 132.928C144.176 132.456 144.176 131.997 144.176 131.551V130.225C144.004 130.491 143.813 130.745 143.604 130.984C143.36 131.265 143.085 131.564 142.779 131.883C142.474 132.201 142.151 132.52 141.812 132.838C141.472 133.175 141.146 133.51 140.833 133.844C140.52 134.177 140.226 134.516 139.951 134.861C139.708 135.148 139.489 135.454 139.298 135.777C139.298 135.938 139.31 136.105 139.333 136.277C139.356 136.449 139.375 136.636 139.39 136.839C139.453 136.839 139.579 136.872 139.774 136.895L140.547 136.99L140.592 137.243C140.342 137.206 140.09 137.189 139.837 137.193L138.548 137.165H138.159H137.552H136.945H136.579L136.648 136.934C137.065 136.897 137.479 136.839 137.89 136.76C137.89 136.367 137.89 135.885 137.89 135.316C137.89 134.747 137.89 134.087 137.89 133.338C137.89 132.443 137.89 131.666 137.89 131.006C137.89 130.347 137.89 129.802 137.89 129.371C137.739 129.323 137.584 129.289 137.426 129.27C137.224 129.244 136.974 129.223 136.676 129.208L136.573 128.995Z" fill="#C0C0C0"/>
<path d="M150.073 133.653C150.104 135.526 150.127 136.561 150.142 136.76C150.585 136.88 151.04 136.954 151.499 136.979V137.232L149.564 137.164L147.995 137.198H147.359L147.405 136.968C147.5 136.951 147.595 136.939 147.691 136.934L148.035 136.906L148.378 136.867C148.48 136.854 148.58 136.832 148.676 136.799C148.676 136.383 148.688 135.941 148.711 135.473C148.733 135.005 148.733 134.505 148.711 133.973C148.711 132.235 148.688 130.708 148.642 129.393L148.184 129.332L147.451 129.236L147.405 129.017H147.817H148.39H148.962H149.369H149.787H150.388H150.961H151.367V129.236C151.367 129.236 151.315 129.236 151.184 129.27L150.754 129.32L150.325 129.377C150.193 129.377 150.136 129.416 150.142 129.438C150.142 129.554 150.142 129.899 150.142 130.472C150.142 131.045 150.13 131.849 150.107 132.883L150.835 132.276C151.193 131.976 151.609 131.617 152.083 131.197L152.752 130.59L153.325 130.073C153.485 129.92 153.619 129.787 153.726 129.674C153.805 129.597 153.875 129.51 153.932 129.416L153.359 129.309L153.016 129.253C153.016 129.253 153.016 129.174 152.982 129.034H153.554C153.836 129.034 154.203 129.034 154.653 129.034H154.957H155.363H155.77H156.039L155.941 129.253C155.636 129.298 155.392 129.345 155.209 129.393C154.972 129.547 154.714 129.734 154.436 129.955C154.157 130.176 153.88 130.388 153.606 130.59L152.77 131.276L152.031 131.894C152.306 132.295 152.627 132.727 152.993 133.192L154.098 134.58C154.48 135.059 154.878 135.548 155.294 136.046C155.711 136.544 156.106 136.986 156.48 137.372L156.09 137.502C155.889 137.404 155.697 137.287 155.518 137.153C155.315 137.007 155.115 136.852 154.917 136.687C154.718 136.522 154.527 136.348 154.344 136.164L153.749 135.647L153.365 135.282L152.833 134.765L152.031 133.995L150.846 132.838C150.691 132.943 150.542 133.055 150.399 133.175C150.251 133.299 150.144 133.392 150.079 133.456L150.073 133.653Z" fill="#C0C0C0"/>
<path d="M156.937 129.017L157.469 129.051C157.713 129.051 158.036 129.051 158.437 129.051H158.9H159.564H160.211H160.635L160.578 129.27L160.177 129.32L159.564 129.433C159.73 129.718 159.87 130.017 159.982 130.326L160.475 131.585C160.646 132.031 160.824 132.461 161.007 132.877C161.151 133.227 161.334 133.56 161.551 133.872C161.701 133.669 161.833 133.455 161.946 133.231C162.076 132.98 162.202 132.71 162.324 132.422C162.446 132.134 162.561 131.838 162.667 131.534L162.977 130.674C163.076 130.405 163.166 130.161 163.246 129.944C163.326 129.727 163.398 129.556 163.463 129.433L163.269 129.399L162.919 129.354L162.57 129.309L162.375 129.275L162.33 129.034H162.633L163.062 129.062H163.486H163.772H164.041H164.442H164.837H165.089V129.281C164.972 129.31 164.857 129.347 164.746 129.393C164.621 129.439 164.489 129.46 164.356 129.455C164.318 129.455 164.217 129.614 164.053 129.933C163.889 130.251 163.698 130.656 163.48 131.146C163.255 131.637 163.015 132.179 162.759 132.77C162.503 133.362 162.253 133.924 162.009 134.456L161.345 135.934C161.146 136.372 161.001 136.679 160.91 136.855L161.253 136.906L161.877 137.001L161.923 137.254C161.744 137.254 161.496 137.236 161.179 137.198C160.862 137.161 160.48 137.146 160.034 137.153H159.782H159.45L159.118 137.181H158.889L158.969 136.928H159.187L159.507 136.895L159.828 136.85C159.899 136.843 159.969 136.824 160.034 136.794C160.237 136.652 160.396 136.457 160.492 136.232C160.721 135.791 160.922 135.337 161.093 134.872C161.036 134.793 160.988 134.708 160.95 134.619C160.881 134.473 160.795 134.287 160.698 134.057L160.366 133.315C160.244 133.046 160.116 132.778 159.982 132.512C159.849 132.246 159.715 131.993 159.582 131.753C159.469 131.548 159.343 131.351 159.204 131.163C158.849 130.691 158.545 130.294 158.293 129.972C158.141 129.765 157.974 129.568 157.795 129.382L157.652 129.348L157.446 129.303L157.223 129.264L157.04 129.225L156.937 129.017Z" fill="#C0C0C0"/>
<path d="M166.951 129.017H167.277L167.821 129.045L168.365 129.079H168.691H169.046L169.619 129.045L170.157 129.011H170.466L170.42 129.219L170.254 129.247L169.968 129.304L169.682 129.354H169.516C169.545 129.583 169.595 129.808 169.665 130.028C169.76 130.298 169.873 130.605 170.002 130.95C170.132 131.295 170.275 131.66 170.432 132.046L170.901 133.169L171.331 134.243C171.464 134.58 171.575 134.872 171.663 135.119C171.704 135.045 171.74 134.968 171.771 134.889C171.825 134.758 171.907 134.57 172.018 134.327C172.182 133.971 172.355 133.583 172.539 133.164C172.722 132.744 172.901 132.317 173.077 131.883L173.598 130.602C173.766 130.182 173.92 129.787 174.061 129.416C173.801 129.321 173.526 129.266 173.248 129.253L173.214 129.017H173.575H174.113H174.651H175.012H175.298H175.739H176.174H176.449L176.403 129.259C176.308 129.259 175.978 129.305 175.413 129.399C175.546 130.032 175.676 130.669 175.802 131.31L176.168 133.175C176.237 133.508 176.302 133.819 176.363 134.108C176.424 134.396 176.485 134.683 176.546 134.968C176.611 135.248 176.678 135.539 176.747 135.838C176.815 136.138 176.894 136.46 176.981 136.805C177.3 136.883 177.623 136.942 177.949 136.979L178.018 137.232L176.06 137.165L174.863 137.198H174.147L174.193 136.968H174.399L174.829 136.917L175.264 136.867H175.476C175.453 136.664 175.409 136.397 175.344 136.063L175.132 134.939L174.886 133.658C174.798 133.213 174.716 132.782 174.64 132.366L174.405 131.152C174.336 130.8 174.287 130.515 174.256 130.298H174.21L171.222 137.254L170.987 136.648C170.907 136.442 170.825 136.239 170.741 136.041L170.581 135.647L170.214 134.754L169.728 133.563C169.552 133.128 169.382 132.701 169.218 132.282C169.054 131.862 168.909 131.486 168.783 131.152C168.68 130.876 168.592 130.595 168.519 130.309H168.474C168.409 130.617 168.342 130.974 168.273 131.383C168.205 131.791 168.134 132.207 168.061 132.63C167.981 133.061 167.909 133.48 167.844 133.889C167.779 134.297 167.722 134.672 167.672 135.012C167.584 135.539 167.525 136.07 167.495 136.603L167.54 136.833C167.697 136.87 168.042 136.929 168.577 137.007L168.623 137.238H168.05L166.796 137.204H166.55H166.178H165.806H165.56L165.657 136.973C165.703 136.943 165.756 136.928 165.811 136.929L166.063 136.9L166.321 136.872C166.378 136.874 166.434 136.858 166.481 136.827C166.535 136.696 166.68 136.125 166.916 135.114C167.012 134.739 167.119 134.295 167.237 133.782L167.598 132.22C167.72 131.688 167.836 131.173 167.947 130.675C168.058 130.176 168.147 129.753 168.216 129.405H167.998L167.626 129.36L167.254 129.309L167.037 129.27L166.951 129.017Z" fill="#C0C0C0"/>
<path d="M99.028 129.32L98.5585 129.247L98.5127 129.028H98.8619H99.3772H101.267H101.873H102.268L102.2 129.247L101.931 129.281L101.484 129.337C101.305 129.343 101.129 129.379 100.963 129.444C100.963 129.736 100.963 130.055 100.963 130.399C100.963 130.744 100.963 131.102 100.963 131.473C100.963 131.847 100.963 132.222 100.963 132.596C100.963 132.971 100.963 133.345 100.963 133.72C100.945 134.29 101.022 134.86 101.192 135.406C101.304 135.77 101.5 136.105 101.765 136.383C101.982 136.598 102.255 136.752 102.555 136.827C102.826 136.895 103.105 136.931 103.385 136.934C103.758 136.945 104.129 136.876 104.473 136.732C104.762 136.609 105.014 136.415 105.205 136.17C105.404 135.896 105.543 135.584 105.612 135.254C105.7 134.855 105.742 134.448 105.738 134.04C105.738 133.816 105.738 133.555 105.738 133.259C105.738 132.963 105.738 132.656 105.738 132.338C105.738 132.019 105.738 131.703 105.738 131.388C105.738 131.074 105.738 130.78 105.738 130.506C105.738 130.236 105.738 130.004 105.738 129.809C105.738 129.618 105.738 129.483 105.738 129.416H105.515L105.177 129.371L104.805 129.32C104.694 129.314 104.583 129.314 104.473 129.32L104.375 129.079H104.753H105.383H106.007H106.379L107.181 129.04L107.713 129.011L107.656 129.253C107.457 129.274 107.264 129.327 107.083 129.41C106.999 129.465 106.903 129.499 106.803 129.512V130.529C106.803 130.806 106.803 131.113 106.803 131.45C106.803 131.787 106.803 132.121 106.803 132.45V134.097C106.809 134.533 106.727 134.967 106.562 135.372C106.41 135.745 106.182 136.083 105.892 136.367C105.592 136.654 105.238 136.883 104.85 137.041C104.425 137.216 103.972 137.318 103.511 137.344H103.356H103.156C102.702 137.346 102.251 137.282 101.816 137.153C101.398 137.034 101.009 136.833 100.671 136.563C100.334 136.289 100.064 135.943 99.881 135.552C99.672 135.089 99.5703 134.586 99.5833 134.08V133.304C99.5833 133.012 99.5833 132.711 99.5833 132.4V131.473C99.5833 131.165 99.5833 130.877 99.5833 130.607C99.5833 130.337 99.5833 130.1 99.5833 129.894C99.5833 129.686 99.5833 129.523 99.5833 129.405C99.4003 129.365 99.2147 129.337 99.028 129.32V129.32Z" fill="white"/>
</g>
<defs>
<clipPath id="clip0_1206_3640">
<rect width="117" height="43.3333" fill="white" transform="translate(61 98)"/>
</clipPath>
</defs>
</svg>
